  0
SECTION
  2
HEADER
  9
$ACADVER
  1
AC1018
  9
$ACADMAINTVER
 70
     0
  9
$DWGCODEPAGE
  3
ANSI_1252
  9
$INSBASE
 10
0.0
 20
0.0
 30
0.0
  9
$EXTMIN
 10
1.000000000000000E+20
 20
1.000000000000000E+20
 30
1.000000000000000E+20
  9
$EXTMAX
 10
-1.000000000000000E+20
 20
-1.000000000000000E+20
 30
-1.000000000000000E+20
  9
$LIMMIN
 10
0.0
 20
0.0
  9
$LIMMAX
 10
12.0
 20
9.0
  9
$ORTHOMODE
 70
     0
  9
$REGENMODE
 70
     1
  9
$FILLMODE
 70
     1
  9
$QTEXTMODE
 70
     0
  9
$MIRRTEXT
 70
     1
  9
$LTSCALE
 40
1.0
  9
$ATTMODE
 70
     1
  9
$TEXTSIZE
 40
0.2
  9
$TRACEWID
 40
0.05
  9
$TEXTSTYLE
  7
Standard
  9
$CLAYER
  8
0
  9
$CELTYPE
  6
ByLayer
  9
$CECOLOR
 62
   256
  9
$CELTSCALE
 40
1.0
  9
$DISPSILH
 70
     0
  9
$DIMSCALE
 40
1.0
  9
$DIMASZ
 40
0.18
  9
$DIMEXO
 40
0.0625
  9
$DIMDLI
 40
0.38
  9
$DIMRND
 40
0.0
  9
$DIMDLE
 40
0.0
  9
$DIMEXE
 40
0.18
  9
$DIMTP
 40
0.0
  9
$DIMTM
 40
0.0
  9
$DIMTXT
 40
0.18
  9
$DIMCEN
 40
0.09
  9
$DIMTSZ
 40
0.0
  9
$DIMTOL
 70
     0
  9
$DIMLIM
 70
     0
  9
$DIMTIH
 70
     1
  9
$DIMTOH
 70
     1
  9
$DIMSE1
 70
     0
  9
$DIMSE2
 70
     0
  9
$DIMTAD
 70
     0
  9
$DIMZIN
 70
     0
  9
$DIMBLK
  1

  9
$DIMASO
 70
     1
  9
$DIMSHO
 70
     1
  9
$DIMPOST
  1

  9
$DIMAPOST
  1

  9
$DIMALT
 70
     0
  9
$DIMALTD
 70
     2
  9
$DIMALTF
 40
25.4
  9
$DIMLFAC
 40
1.0
  9
$DIMTOFL
 70
     0
  9
$DIMTVP
 40
0.0
  9
$DIMTIX
 70
     0
  9
$DIMSOXD
 70
     0
  9
$DIMSAH
 70
     0
  9
$DIMBLK1
  1

  9
$DIMBLK2
  1

  9
$DIMSTYLE
  2
Standard
  9
$DIMCLRD
 70
     0
  9
$DIMCLRE
 70
     0
  9
$DIMCLRT
 70
     0
  9
$DIMTFAC
 40
1.0
  9
$DIMGAP
 40
0.09
  9
$DIMJUST
 70
     0
  9
$DIMSD1
 70
     0
  9
$DIMSD2
 70
     0
  9
$DIMTOLJ
 70
     1
  9
$DIMTZIN
 70
     0
  9
$DIMALTZ
 70
     0
  9
$DIMALTTZ
 70
     0
  9
$DIMUPT
 70
     0
  9
$DIMDEC
 70
     4
  9
$DIMTDEC
 70
     4
  9
$DIMALTU
 70
     2
  9
$DIMALTTD
 70
     2
  9
$DIMTXSTY
  7
Standard
  9
$DIMAUNIT
 70
     0
  9
$DIMADEC
 70
     0
  9
$DIMALTRND
 40
0.0
  9
$DIMAZIN
 70
     0
  9
$DIMDSEP
 70
    46
  9
$DIMATFIT
 70
     3
  9
$DIMFRAC
 70
     0
  9
$DIMLDRBLK
  1

  9
$DIMLUNIT
 70
     2
  9
$DIMLWD
 70
    -2
  9
$DIMLWE
 70
    -2
  9
$DIMTMOVE
 70
     0
  9
$LUNITS
 70
     2
  9
$LUPREC
 70
     4
  9
$SKETCHINC
 40
0.1
  9
$FILLETRAD
 40
0.5
  9
$AUNITS
 70
     0
  9
$AUPREC
 70
     0
  9
$MENU
  1
.
  9
$ELEVATION
 40
0.0
  9
$PELEVATION
 40
0.0
  9
$THICKNESS
 40
0.0
  9
$LIMCHECK
 70
     0
  9
$CHAMFERA
 40
0.5
  9
$CHAMFERB
 40
0.5
  9
$CHAMFERC
 40
1.0
  9
$CHAMFERD
 40
0.0
  9
$SKPOLY
 70
     0
  9
$TDCREATE
 40
2457030.527238287
  9
$TDUCREATE
 40
2457030.485571621
  9
$TDUPDATE
 40
2457030.527238299
  9
$TDUUPDATE
 40
2457030.485571632
  9
$TDINDWG
 40
0.0000000116
  9
$TDUSRTIMER
 40
0.0000000116
  9
$USRTIMER
 70
     1
  9
$ANGBASE
 50
0.0
  9
$ANGDIR
 70
     0
  9
$PDMODE
 70
     0
  9
$PDSIZE
 40
0.0
  9
$PLINEWID
 40
0.0
  9
$SPLFRAME
 70
     0
  9
$SPLINETYPE
 70
     6
  9
$SPLINESEGS
 70
     8
  9
$HANDSEED
  5
85
  9
$SURFTAB1
 70
     6
  9
$SURFTAB2
 70
     6
  9
$SURFTYPE
 70
     6
  9
$SURFU
 70
     6
  9
$SURFV
 70
     6
  9
$UCSBASE
  2

  9
$UCSNAME
  2

  9
$UCSORG
 10
0.0
 20
0.0
 30
0.0
  9
$UCSXDIR
 10
1.0
 20
0.0
 30
0.0
  9
$UCSYDIR
 10
0.0
 20
1.0
 30
0.0
  9
$UCSORTHOREF
  2

  9
$UCSORTHOVIEW
 70
     0
  9
$UCSORGTOP
 10
0.0
 20
0.0
 30
0.0
  9
$UCSORGBOTTOM
 10
0.0
 20
0.0
 30
0.0
  9
$UCSORGLEFT
 10
0.0
 20
0.0
 30
0.0
  9
$UCSORGRIGHT
 10
0.0
 20
0.0
 30
0.0
  9
$UCSORGFRONT
 10
0.0
 20
0.0
 30
0.0
  9
$UCSORGBACK
 10
0.0
 20
0.0
 30
0.0
  9
$PUCSBASE
  2

  9
$PUCSNAME
  2

  9
$PUCSORG
 10
0.0
 20
0.0
 30
0.0
  9
$PUCSXDIR
 10
1.0
 20
0.0
 30
0.0
  9
$PUCSYDIR
 10
0.0
 20
1.0
 30
0.0
  9
$PUCSORTHOREF
  2

  9
$PUCSORTHOVIEW
 70
     0
  9
$PUCSORGTOP
 10
0.0
 20
0.0
 30
0.0
  9
$PUCSORGBOTTOM
 10
0.0
 20
0.0
 30
0.0
  9
$PUCSORGLEFT
 10
0.0
 20
0.0
 30
0.0
  9
$PUCSORGRIGHT
 10
0.0
 20
0.0
 30
0.0
  9
$PUCSORGFRONT
 10
0.0
 20
0.0
 30
0.0
  9
$PUCSORGBACK
 10
0.0
 20
0.0
 30
0.0
  9
$USERI1
 70
     0
  9
$USERI2
 70
     0
  9
$USERI3
 70
     0
  9
$USERI4
 70
     0
  9
$USERI5
 70
     0
  9
$USERR1
 40
0.0
  9
$USERR2
 40
0.0
  9
$USERR3
 40
0.0
  9
$USERR4
 40
0.0
  9
$USERR5
 40
0.0
  9
$WORLDVIEW
 70
     1
  9
$SHADEDGE
 70
     3
  9
$SHADEDIF
 70
    70
  9
$TILEMODE
 70
     1
  9
$MAXACTVP
 70
    64
  9
$PINSBASE
 10
0.0
 20
0.0
 30
0.0
  9
$PLIMCHECK
 70
     0
  9
$PEXTMIN
 10
1.000000000000000E+20
 20
1.000000000000000E+20
 30
1.000000000000000E+20
  9
$PEXTMAX
 10
-1.000000000000000E+20
 20
-1.000000000000000E+20
 30
-1.000000000000000E+20
  9
$PLIMMIN
 10
0.0
 20
0.0
  9
$PLIMMAX
 10
12.0
 20
9.0
  9
$UNITMODE
 70
     0
  9
$VISRETAIN
 70
     1
  9
$PLINEGEN
 70
     0
  9
$PSLTSCALE
 70
     1
  9
$TREEDEPTH
 70
  3020
  9
$CMLSTYLE
  2
Standard
  9
$CMLJUST
 70
     0
  9
$CMLSCALE
 40
1.0
  9
$PROXYGRAPHICS
 70
     1
  9
$MEASUREMENT
 70
     0
  9
$CELWEIGHT
370
    -1
  9
$ENDCAPS
280
     0
  9
$JOINSTYLE
280
     0
  9
$LWDISPLAY
290
     1
  9
$INSUNITS
 70
     1
  9
$HYPERLINKBASE
  1

  9
$STYLESHEET
  1

  9
$XEDIT
290
     1
  9
$CEPSNTYPE
380
     0
  9
$PSTYLEMODE
290
     1
  9
$FINGERPRINTGUID
  2
{C6F85708-68DF-44F3-98DC-0758C65BFEB2}
  9
$VERSIONGUID
  2
{FAEB1C32-E019-11D5-929B-00C0DF256EC4}
  9
$EXTNAMES
290
     1
  9
$PSVPSCALE
 40
0.0
  9
$OLESTARTUP
290
     0
  9
$SORTENTS
280
   127
  9
$INDEXCTL
280
     0
  9
$HIDETEXT
280
     1
  9
$XCLIPFRAME
290
     0
  9
$HALOGAP
280
     0
  9
$OBSCOLOR
 70
   257
  9
$OBSLTYPE
280
     0
  9
$INTERSECTIONDISPLAY
280
     0
  9
$INTERSECTIONCOLOR
 70
   257
  9
$DIMASSOC
280
     2
  9
$PROJECTNAME
  1

  0
ENDSEC
  0
SECTION
  2
CLASSES
  0
CLASS
  1
ACDBDICTIONARYWDFLT
  2
AcDbDictionaryWithDefault
  3
ObjectDBX Classes
 90
        0
 91
        3
280
     0
281
     0
  0
CLASS
  1
VISUALSTYLE
  2
AcDbVisualStyle
  3
ObjectDBX Classes
 90
     4095
 91
        3
280
     0
281
     0
  0
ENDSEC
  0
SECTION
  2
TABLES
  0
TABLE
  2
VPORT
  5
8
330
0
100
AcDbSymbolTable
 70
     1
  0
VPORT
  5
29
330
8
100
AcDbSymbolTableRecord
100
AcDbViewportTableRecord
  2
*Active
 70
     0
 10
0.0
 20
0.0
 11
1.0
 21
1.0
 12
0.0
 22
0.0
 13
0.0
 23
0.0
 14
0.5
 24
0.5
 15
0.5
 25
0.5
 16
0.0
 26
0.0
 36
1.0
 17
1359.142878891985
 27
-202.1248717756407
 37
0.0
 40
1000.000115038628
 41
1.499999913872623
 42
50.0
 43
0.0
 44
0.0
 50
0.0
 51
0.0
 71
     0
 72
   100
 73
     1
 74
     3
 75
     0
 76
     0
 77
     0
 78
     0
281
     0
 65
     1
110
0.0
120
0.0
130
0.0
111
1.0
121
0.0
131
0.0
112
0.0
122
1.0
132
0.0
 79
     0
146
0.0
  0
ENDTAB
  0
TABLE
  2
LTYPE
  5
5
330
0
100
AcDbSymbolTable
 70
     1
  0
LTYPE
  5
14
330
5
100
AcDbSymbolTableRecord
100
AcDbLinetypeTableRecord
  2
ByBlock
 70
     0
  3

 72
    65
 73
     0
 40
0.0
  0
LTYPE
  5
15
330
5
100
AcDbSymbolTableRecord
100
AcDbLinetypeTableRecord
  2
ByLayer
 70
     0
  3

 72
    65
 73
     0
 40
0.0
  0
LTYPE
  5
16
330
5
100
AcDbSymbolTableRecord
100
AcDbLinetypeTableRecord
  2
Continuous
 70
     0
  3
Solid line
 72
    65
 73
     0
 40
0.0
  0
ENDTAB
  0
TABLE
  2
LAYER
  5
2
330
0
100
AcDbSymbolTable
 70
     6
  0
LAYER
  5
10
330
2
100
AcDbSymbolTableRecord
100
AcDbLayerTableRecord
  2
0
 70
     1
 62
     7
  6
Continuous
370
    -3
390
F
  0
LAYER
  5
3B
330
2
100
AcDbSymbolTableRecord
100
AcDbLayerTableRecord
  2
hilfslinien
 70
     1
 62
     7
  6
Continuous
370
    -3
390
F
  0
LAYER
  5
3C
330
2
100
AcDbSymbolTableRecord
100
AcDbLayerTableRecord
  2
bodenplatte neu
 70
     0
 62
     7
  6
Continuous
370
    -3
390
F
  0
LAYER
  5
41
330
2
100
AcDbSymbolTableRecord
100
AcDbLayerTableRecord
  2
bohrungen
 70
     0
 62
     7
  6
Continuous
370
    -3
390
F
  0
LAYER
  5
82
330
2
100
AcDbSymbolTableRecord
100
AcDbLayerTableRecord
  2
hotbed
 70
     1
 62
     7
  6
Continuous
370
    -3
390
F
  0
LAYER
  5
83
330
2
100
AcDbSymbolTableRecord
100
AcDbLayerTableRecord
  2
original rostock
 70
     1
 62
     7
  6
Continuous
370
    -3
390
F
  0
ENDTAB
  0
TABLE
  2
STYLE
  5
3
330
0
100
AcDbSymbolTable
 70
     1
  0
STYLE
  5
11
330
3
100
AcDbSymbolTableRecord
100
AcDbTextStyleTableRecord
  2
Standard
 70
     0
 40
0.0
 41
1.0
 50
0.0
 71
     0
 42
0.2
  3
txt
  4

  0
ENDTAB
  0
TABLE
  2
VIEW
  5
6
330
0
100
AcDbSymbolTable
 70
     0
  0
ENDTAB
  0
TABLE
  2
UCS
  5
7
330
0
100
AcDbSymbolTable
 70
     0
  0
ENDTAB
  0
TABLE
  2
APPID
  5
9
330
0
100
AcDbSymbolTable
 70
     1
  0
APPID
  5
12
330
9
100
AcDbSymbolTableRecord
100
AcDbRegAppTableRecord
  2
ACAD
 70
     0
  0
ENDTAB
  0
TABLE
  2
DIMSTYLE
  5
A
330
0
100
AcDbSymbolTable
 70
     1
100
AcDbDimStyleTable
  0
DIMSTYLE
105
27
330
A
100
AcDbSymbolTableRecord
100
AcDbDimStyleTableRecord
  2
Standard
 70
     0
340
11
  0
ENDTAB
  0
TABLE
  2
BLOCK_RECORD
  5
1
330
0
100
AcDbSymbolTable
 70
     5
  0
BLOCK_RECORD
  5
1F
330
1
100
AcDbSymbolTableRecord
100
AcDbBlockTableRecord
  2
*Model_Space
340
22
  0
BLOCK_RECORD
  5
1B
330
1
100
AcDbSymbolTableRecord
100
AcDbBlockTableRecord
  2
*Paper_Space
340
1E
  0
BLOCK_RECORD
  5
23
330
1
100
AcDbSymbolTableRecord
100
AcDbBlockTableRecord
  2
*Paper_Space0
340
26
  0
BLOCK_RECORD
  5
42
330
1
100
AcDbSymbolTableRecord
100
AcDbBlockTableRecord
  2
block 2
340
0
102
{BLKREFS
331
43
102
}
  0
BLOCK_RECORD
  5
58
330
1
100
AcDbSymbolTableRecord
100
AcDbBlockTableRecord
  2
block 3
340
0
102
{BLKREFS
331
59
102
}
  0
BLOCK_RECORD
  5
62
330
1
100
AcDbSymbolTableRecord
100
AcDbBlockTableRecord
  2
block 4
340
0
102
{BLKREFS
331
63
102
}
  0
BLOCK_RECORD
  5
78
330
1
100
AcDbSymbolTableRecord
100
AcDbBlockTableRecord
  2
block 5
340
0
102
{BLKREFS
331
79
102
}
  0
ENDTAB
  0
ENDSEC
  0
SECTION
  2
BLOCKS
  0
BLOCK
  5
20
330
1F
100
AcDbEntity
  8
0
100
AcDbBlockBegin
  2
*Model_Space
 70
     0
 71
     0
 10
0.0
 20
0.0
 30
0.0
  3
*Model_Space
  1

  0
ENDBLK
  5
21
330
1F
100
AcDbEntity
  8
0
100
AcDbBlockEnd
  0
BLOCK
  5
1C
330
1B
100
AcDbEntity
 67
     1
  8
0
100
AcDbBlockBegin
  2
*Paper_Space
 70
     0
 71
     0
 10
0.0
 20
0.0
 30
0.0
  3
*Paper_Space
  1

  0
ENDBLK
  5
1D
330
1B
100
AcDbEntity
 67
     1
  8
0
100
AcDbBlockEnd
  0
BLOCK
  5
24
330
23
100
AcDbEntity
  8
0
100
AcDbBlockBegin
  2
*Paper_Space0
 70
     0
 71
     0
 10
0.0
 20
0.0
 30
0.0
  3
*Paper_Space0
  1

  0
ENDBLK
  5
25
330
23
100
AcDbEntity
  8
0
100
AcDbBlockEnd
  0
BLOCK
  5
44
330
42
100
AcDbEntity
  8
0
100
AcDbBlockBegin
  2
block 2
 70
     0
 71
     0
 10
0.0
 20
0.0
 30
0.0
  3
block 2
  1

  0
SPLINE
  5
46
330
42
100
AcDbEntity
  8
bohrungen
 62
     7
370
    35
100
AcDbSpline
210
0.0
220
0.0
230
1.0
 70
    11
 71
     3
 72
    17
 73
    13
 74
     0
 42
0.0000000001
 43
0.0000000001
 40
0.0
 40
0.0
 40
0.0
 40
0.0
 40
1.0
 40
1.0
 40
1.0
 40
2.0
 40
2.0
 40
2.0
 40
3.0
 40
3.0
 40
3.0
 40
4.0
 40
4.0
 40
4.0
 40
4.0
 10
907.4874156802463
 20
223.2623412527782
 30
0.0
 10
907.4874156802463
 20
222.1578436402071
 30
0.0
 10
906.5920353636299
 20
221.2621188140421
 30
0.0
 10
905.4875377510588
 20
221.2621188140421
 30
0.0
 10
904.3830401384876
 20
221.2621188140421
 30
0.0
 10
903.4873153123226
 20
222.1578436402071
 30
0.0
 10
903.4873153123226
 20
223.2623412527782
 30
0.0
 10
903.4873153123226
 20
224.3668388653493
 30
0.0
 10
904.3830401384876
 20
225.2622191819657
 30
0.0
 10
905.4875377510588
 20
225.2622191819657
 30
0.0
 10
906.5920353636299
 20
225.2622191819657
 30
0.0
 10
907.4874156802463
 20
224.3668388653493
 30
0.0
 10
907.4874156802463
 20
223.2623412527782
 30
0.0
  0
SPLINE
  5
47
330
42
100
AcDbEntity
  8
bohrungen
 62
     7
370
    35
100
AcDbSpline
210
0.0
220
0.0
230
1.0
 70
    11
 71
     3
 72
    17
 73
    13
 74
     0
 42
0.0000000001
 43
0.0000000001
 40
0.0
 40
0.0
 40
0.0
 40
0.0
 40
1.0
 40
1.0
 40
1.0
 40
2.0
 40
2.0
 40
2.0
 40
3.0
 40
3.0
 40
3.0
 40
4.0
 40
4.0
 40
4.0
 40
4.0
 10
807.5875703276171
 20
-53.21707897975129
 30
0.0
 10
807.5875703276171
 20
-54.32157659232239
 30
0.0
 10
806.6918455014521
 20
-55.21661239939029
 30
0.0
 10
805.587347888881
 20
-55.21661239939029
 30
0.0
 10
804.4828502763099
 20
-55.21661239939029
 30
0.0
 10
803.5874699596934
 20
-54.32157659232239
 30
0.0
 10
803.5874699596934
 20
-53.21707897975129
 30
0.0
 10
803.5874699596934
 20
-52.11258136718019
 30
0.0
 10
804.4828502763099
 20
-51.21685654101523
 30
0.0
 10
805.587347888881
 20
-51.21685654101523
 30
0.0
 10
806.6918455014521
 20
-51.21685654101523
 30
0.0
 10
807.5875703276171
 20
-52.11258136718019
 30
0.0
 10
807.5875703276171
 20
-53.21707897975129
 30
0.0
  0
SPLINE
  5
48
330
42
100
AcDbEntity
  8
bohrungen
 62
     7
370
    35
100
AcDbSpline
210
0.0
220
0.0
230
1.0
 70
    11
 71
     3
 72
    17
 73
    13
 74
     0
 42
0.0000000001
 43
0.0000000001
 40
0.0
 40
0.0
 40
0.0
 40
0.0
 40
1.0
 40
1.0
 40
1.0
 40
2.0
 40
2.0
 40
2.0
 40
3.0
 40
3.0
 40
3.0
 40
4.0
 40
4.0
 40
4.0
 40
4.0
 10
777.8574298185565
 20
-1.256770833019141
 30
0.0
 10
777.8574298185565
 20
-2.361268445590238
 30
0.0
 10
776.9620495019401
 20
-3.256993271755196
 30
0.0
 10
775.857551889369
 20
-3.256993271755196
 30
0.0
 10
774.7530542767979
 20
-3.256993271755196
 30
0.0
 10
773.857329450633
 20
-2.361268445590238
 30
0.0
 10
773.857329450633
 20
-1.256770833019141
 30
0.0
 10
773.857329450633
 20
-0.1522732204480428
 30
0.0
 10
774.7530542767979
 20
0.7434516057169149
 30
0.0
 10
775.857551889369
 20
0.7434516057169149
 30
0.0
 10
776.9620495019401
 20
0.7434516057169149
 30
0.0
 10
777.8574298185565
 20
-0.1522732204480428
 30
0.0
 10
777.8574298185565
 20
-1.256770833019141
 30
0.0
  0
SPLINE
  5
49
330
42
100
AcDbEntity
  8
bohrungen
 62
     7
370
    35
100
AcDbSpline
210
0.0
220
0.0
230
1.0
 70
    11
 71
     3
 72
    17
 73
    13
 74
     0
 42
0.0000000001
 43
0.0000000001
 40
0.0
 40
0.0
 40
0.0
 40
0.0
 40
1.0
 40
1.0
 40
1.0
 40
2.0
 40
2.0
 40
2.0
 40
3.0
 40
3.0
 40
3.0
 40
4.0
 40
4.0
 40
4.0
 40
4.0
 10
838.764306430934
 20
-35.21645506932089
 30
0.0
 10
838.764306430934
 20
-36.32095268189199
 30
0.0
 10
837.8689261143176
 20
-37.21667750805695
 30
0.0
 10
836.7640839921979
 20
-37.21667750805695
 30
0.0
 10
835.6595863796268
 20
-37.21667750805695
 30
0.0
 10
834.7645505725588
 20
-36.32095268189199
 30
0.0
 10
834.7645505725588
 20
-35.21645506932089
 30
0.0
 10
834.7645505725588
 20
-34.11195745674979
 30
0.0
 10
835.6595863796268
 20
-33.21623263058483
 30
0.0
 10
836.7640839921979
 20
-33.21623263058483
 30
0.0
 10
837.8689261143176
 20
-33.21623263058483
 30
0.0
 10
838.764306430934
 20
-34.11195745674979
 30
0.0
 10
838.764306430934
 20
-35.21645506932089
 30
0.0
  0
SPLINE
  5
4A
330
42
100
AcDbEntity
  8
bohrungen
 62
     7
370
    35
100
AcDbSpline
210
0.0
220
0.0
230
1.0
 70
    11
 71
     3
 72
    17
 73
    13
 74
     0
 42
0.0000000001
 43
0.0000000001
 40
0.0
 40
0.0
 40
0.0
 40
0.0
 40
1.0
 40
1.0
 40
1.0
 40
2.0
 40
2.0
 40
2.0
 40
3.0
 40
3.0
 40
3.0
 40
4.0
 40
4.0
 40
4.0
 40
4.0
 10
809.034510431422
 20
16.74385307741126
 30
0.0
 10
809.034510431422
 20
15.63935546484016
 30
0.0
 10
808.138785605257
 20
14.7436306386752
 30
0.0
 10
807.0342879926859
 20
14.7436306386752
 30
0.0
 10
805.9297903801148
 20
14.7436306386752
 30
0.0
 10
805.0344100634984
 20
15.63935546484016
 30
0.0
 10
805.0344100634984
 20
16.74385307741126
 30
0.0
 10
805.0344100634984
 20
17.84835068998236
 30
0.0
 10
805.9297903801148
 20
18.74407551614732
 30
0.0
 10
807.0342879926859
 20
18.74407551614732
 30
0.0
 10
808.138785605257
 20
18.74407551614732
 30
0.0
 10
809.034510431422
 20
17.84835068998236
 30
0.0
 10
809.034510431422
 20
16.74385307741126
 30
0.0
  0
SPLINE
  5
4B
330
42
100
AcDbEntity
  8
bohrungen
 62
     7
370
    35
100
AcDbSpline
210
0.0
220
0.0
230
1.0
 70
    11
 71
     3
 72
    17
 73
    13
 74
     0
 42
0.0000000001
 43
0.0000000001
 40
0.0
 40
0.0
 40
0.0
 40
0.0
 40
1.0
 40
1.0
 40
1.0
 40
2.0
 40
2.0
 40
2.0
 40
3.0
 40
3.0
 40
3.0
 40
4.0
 40
4.0
 40
4.0
 40
4.0
 10
1097.117529022596
 20
-1.256770833019141
 30
0.0
 10
1097.117529022596
 20
-2.361268445590238
 30
0.0
 10
1096.222493215528
 20
-3.256993271755196
 30
0.0
 10
1095.117995602957
 20
-3.256993271755196
 30
0.0
 10
1094.013497990386
 20
-3.256993271755196
 30
0.0
 10
1093.117773164221
 20
-2.361268445590238
 30
0.0
 10
1093.117773164221
 20
-1.256770833019141
 30
0.0
 10
1093.117773164221
 20
-0.1522732204480428
 30
0.0
 10
1094.013497990386
 20
0.7434516057169149
 30
0.0
 10
1095.117995602957
 20
0.7434516057169149
 30
0.0
 10
1096.222493215528
 20
0.7434516057169149
 30
0.0
 10
1097.117529022596
 20
-0.1522732204480428
 30
0.0
 10
1097.117529022596
 20
-1.256770833019141
 30
0.0
  0
SPLINE
  5
4C
330
42
100
AcDbEntity
  8
bohrungen
 62
     7
370
    35
100
AcDbSpline
210
0.0
220
0.0
230
1.0
 70
    11
 71
     3
 72
    17
 73
    13
 74
     0
 42
0.0000000001
 43
0.0000000001
 40
0.0
 40
0.0
 40
0.0
 40
0.0
 40
1.0
 40
1.0
 40
1.0
 40
2.0
 40
2.0
 40
2.0
 40
3.0
 40
3.0
 40
3.0
 40
4.0
 40
4.0
 40
4.0
 40
4.0
 10
1067.11763753704
 20
-53.21707897975129
 30
0.0
 10
1067.11763753704
 20
-54.32157659232239
 30
0.0
 10
1066.222601729972
 20
-55.21661239939029
 30
0.0
 10
1065.118104117401
 20
-55.21661239939029
 30
0.0
 10
1064.01360650483
 20
-55.21661239939029
 30
0.0
 10
1063.117881678665
 20
-54.32157659232239
 30
0.0
 10
1063.117881678665
 20
-53.21707897975129
 30
0.0
 10
1063.117881678665
 20
-52.11258136718019
 30
0.0
 10
1064.01360650483
 20
-51.21685654101523
 30
0.0
 10
1065.118104117401
 20
-51.21685654101523
 30
0.0
 10
1066.222601729972
 20
-51.21685654101523
 30
0.0
 10
1067.11763753704
 20
-52.11258136718019
 30
0.0
 10
1067.11763753704
 20
-53.21707897975129
 30
0.0
  0
SPLINE
  5
4D
330
42
100
AcDbEntity
  8
bohrungen
 62
     7
370
    35
100
AcDbSpline
210
0.0
220
0.0
230
1.0
 70
    11
 71
     3
 72
    17
 73
    13
 74
     0
 42
0.0000000001
 43
0.0000000001
 40
0.0
 40
0.0
 40
0.0
 40
0.0
 40
1.0
 40
1.0
 40
1.0
 40
2.0
 40
2.0
 40
2.0
 40
3.0
 40
3.0
 40
3.0
 40
4.0
 40
4.0
 40
4.0
 40
4.0
 10
1065.940792919279
 20
16.74385307741126
 30
0.0
 10
1065.940792919279
 20
15.63935546484016
 30
0.0
 10
1065.045068093114
 20
14.7436306386752
 30
0.0
 10
1063.940570480543
 20
14.7436306386752
 30
0.0
 10
1062.836072867972
 20
14.7436306386752
 30
0.0
 10
1061.941037060904
 20
15.63935546484016
 30
0.0
 10
1061.941037060904
 20
16.74385307741126
 30
0.0
 10
1061.941037060904
 20
17.84835068998236
 30
0.0
 10
1062.836072867972
 20
18.74407551614732
 30
0.0
 10
1063.940570480543
 20
18.74407551614732
 30
0.0
 10
1065.045068093114
 20
18.74407551614732
 30
0.0
 10
1065.940792919279
 20
17.84835068998236
 30
0.0
 10
1065.940792919279
 20
16.74385307741126
 30
0.0
  0
SPLINE
  5
4E
330
42
100
AcDbEntity
  8
bohrungen
 62
     7
370
    35
100
AcDbSpline
210
0.0
220
0.0
230
1.0
 70
    11
 71
     3
 72
    17
 73
    13
 74
     0
 42
0.0000000001
 43
0.0000000001
 40
0.0
 40
0.0
 40
0.0
 40
0.0
 40
1.0
 40
1.0
 40
1.0
 40
2.0
 40
2.0
 40
2.0
 40
3.0
 40
3.0
 40
3.0
 40
4.0
 40
4.0
 40
4.0
 40
4.0
 10
1035.940901433723
 20
-35.21645506932089
 30
0.0
 10
1035.940901433723
 20
-36.32095268189199
 30
0.0
 10
1035.045176607558
 20
-37.21667750805695
 30
0.0
 10
1033.940678994987
 20
-37.21667750805695
 30
0.0
 10
1032.836181382416
 20
-37.21667750805695
 30
0.0
 10
1031.941145575348
 20
-36.32095268189199
 30
0.0
 10
1031.941145575348
 20
-35.21645506932089
 30
0.0
 10
1031.941145575348
 20
-34.11195745674979
 30
0.0
 10
1032.836181382416
 20
-33.21623263058483
 30
0.0
 10
1033.940678994987
 20
-33.21623263058483
 30
0.0
 10
1035.045176607558
 20
-33.21623263058483
 30
0.0
 10
1035.940901433723
 20
-34.11195745674979
 30
0.0
 10
1035.940901433723
 20
-35.21645506932089
 30
0.0
  0
SPLINE
  5
4F
330
42
100
AcDbEntity
  8
bohrungen
 62
     7
370
    35
100
AcDbSpline
210
0.0
220
0.0
230
1.0
 70
    11
 71
     3
 72
    17
 73
    13
 74
     0
 42
0.0000000001
 43
0.0000000001
 40
0.0
 40
0.0
 40
0.0
 40
0.0
 40
1.0
 40
1.0
 40
1.0
 40
2.0
 40
2.0
 40
2.0
 40
3.0
 40
3.0
 40
3.0
 40
4.0
 40
4.0
 40
4.0
 40
4.0
 10
967.487543160906
 20
223.2623412527782
 30
0.0
 10
967.487543160906
 20
222.1578436402071
 30
0.0
 10
966.5925073538381
 20
221.2621188140421
 30
0.0
 10
965.488009741267
 20
221.2621188140421
 30
0.0
 10
964.3835121286959
 20
221.2621188140421
 30
0.0
 10
963.4877873025308
 20
222.1578436402071
 30
0.0
 10
963.4877873025308
 20
223.2623412527782
 30
0.0
 10
963.4877873025308
 20
224.3668388653493
 30
0.0
 10
964.3835121286959
 20
225.2622191819657
 30
0.0
 10
965.488009741267
 20
225.2622191819657
 30
0.0
 10
966.5925073538381
 20
225.2622191819657
 30
0.0
 10
967.487543160906
 20
224.3668388653493
 30
0.0
 10
967.487543160906
 20
223.2623412527782
 30
0.0
  0
SPLINE
  5
50
330
42
100
AcDbEntity
  8
bohrungen
 62
     7
370
    35
100
AcDbSpline
210
0.0
220
0.0
230
1.0
 70
    11
 71
     3
 72
    17
 73
    13
 74
     0
 42
0.0000000001
 43
0.0000000001
 40
0.0
 40
0.0
 40
0.0
 40
0.0
 40
1.0
 40
1.0
 40
1.0
 40
2.0
 40
2.0
 40
2.0
 40
3.0
 40
3.0
 40
3.0
 40
4.0
 40
4.0
 40
4.0
 40
4.0
 10
907.4874156802463
 20
187.2624714701115
 30
0.0
 10
907.4874156802463
 20
186.1576293479918
 30
0.0
 10
906.5920353636299
 20
185.2622490313754
 30
0.0
 10
905.4875377510588
 20
185.2622490313754
 30
0.0
 10
904.3830401384876
 20
185.2622490313754
 30
0.0
 10
903.4873153123226
 20
186.1576293479918
 30
0.0
 10
903.4873153123226
 20
187.2624714701115
 30
0.0
 10
903.4873153123226
 20
188.3669690826826
 30
0.0
 10
904.3830401384876
 20
189.2620048897505
 30
0.0
 10
905.4875377510588
 20
189.2620048897505
 30
0.0
 10
906.5920353636299
 20
189.2620048897505
 30
0.0
 10
907.4874156802463
 20
188.3669690826826
 30
0.0
 10
907.4874156802463
 20
187.2624714701115
 30
0.0
  0
SPLINE
  5
51
330
42
100
AcDbEntity
  8
bohrungen
 62
     7
370
    35
100
AcDbSpline
210
0.0
220
0.0
230
1.0
 70
    11
 71
     3
 72
    17
 73
    13
 74
     0
 42
0.0000000001
 43
0.0000000001
 40
0.0
 40
0.0
 40
0.0
 40
0.0
 40
1.0
 40
1.0
 40
1.0
 40
2.0
 40
2.0
 40
2.0
 40
3.0
 40
3.0
 40
3.0
 40
4.0
 40
4.0
 40
4.0
 40
4.0
 10
967.487543160906
 20
187.2624714701115
 30
0.0
 10
967.487543160906
 20
186.1576293479918
 30
0.0
 10
966.5925073538381
 20
185.2622490313754
 30
0.0
 10
965.488009741267
 20
185.2622490313754
 30
0.0
 10
964.3835121286959
 20
185.2622490313754
 30
0.0
 10
963.4877873025308
 20
186.1576293479918
 30
0.0
 10
963.4877873025308
 20
187.2624714701115
 30
0.0
 10
963.4877873025308
 20
188.3669690826826
 30
0.0
 10
964.3835121286959
 20
189.2620048897505
 30
0.0
 10
965.488009741267
 20
189.2620048897505
 30
0.0
 10
966.5925073538381
 20
189.2620048897505
 30
0.0
 10
967.487543160906
 20
188.3669690826826
 30
0.0
 10
967.487543160906
 20
187.2624714701115
 30
0.0
  0
ENDBLK
  5
45
330
42
100
AcDbEntity
  8
0
100
AcDbBlockEnd
  0
BLOCK
  5
5A
330
58
100
AcDbEntity
  8
0
100
AcDbBlockBegin
  2
block 3
 70
     0
 71
     0
 10
0.0
 20
0.0
 30
0.0
  3
block 3
  1

  0
SPLINE
  5
5C
330
58
100
AcDbEntity
  8
bohrungen
 62
     7
370
    35
100
AcDbSpline
210
0.0
220
0.0
230
1.0
 70
    11
 71
     3
 72
    17
 73
    13
 74
     0
 42
0.0000000001
 43
0.0000000001
 40
0.0
 40
0.0
 40
0.0
 40
0.0
 40
1.0
 40
1.0
 40
1.0
 40
2.0
 40
2.0
 40
2.0
 40
3.0
 40
3.0
 40
3.0
 40
4.0
 40
4.0
 40
4.0
 40
4.0
 10
907.4874156802463
 20
-154.7378417581905
 30
0.0
 10
907.4874156802463
 20
-155.8423393707616
 30
0.0
 10
906.5920353636299
 20
-156.7380641969266
 30
0.0
 10
905.4875377510588
 20
-156.7380641969266
 30
0.0
 10
904.3830401384876
 20
-156.7380641969266
 30
0.0
 10
903.4873153123226
 20
-155.8423393707616
 30
0.0
 10
903.4873153123226
 20
-154.7378417581905
 30
0.0
 10
903.4873153123226
 20
-153.6333441456194
 30
0.0
 10
904.3830401384876
 20
-152.7376193194545
 30
0.0
 10
905.4875377510588
 20
-152.7376193194545
 30
0.0
 10
906.5920353636299
 20
-152.7376193194545
 30
0.0
 10
907.4874156802463
 20
-153.6333441456194
 30
0.0
 10
907.4874156802463
 20
-154.7378417581905
 30
0.0
  0
SPLINE
  5
5D
330
58
100
AcDbEntity
  8
bohrungen
 62
     7
370
    35
100
AcDbSpline
210
0.0
220
0.0
230
1.0
 70
    11
 71
     3
 72
    17
 73
    13
 74
     0
 42
0.0000000001
 43
0.0000000001
 40
0.0
 40
0.0
 40
0.0
 40
0.0
 40
1.0
 40
1.0
 40
1.0
 40
2.0
 40
2.0
 40
2.0
 40
3.0
 40
3.0
 40
3.0
 40
4.0
 40
4.0
 40
4.0
 40
4.0
 10
807.5875703276171
 20
-431.2170897359458
 30
0.0
 10
807.5875703276171
 20
-432.3215873485169
 30
0.0
 10
806.6918455014521
 20
-433.2166231555847
 30
0.0
 10
805.587347888881
 20
-433.2166231555847
 30
0.0
 10
804.4828502763099
 20
-433.2166231555847
 30
0.0
 10
803.5874699596934
 20
-432.3215873485169
 30
0.0
 10
803.5874699596934
 20
-431.2170897359458
 30
0.0
 10
803.5874699596934
 20
-430.1125921233747
 30
0.0
 10
804.4828502763099
 20
-429.2168672972097
 30
0.0
 10
805.587347888881
 20
-429.2168672972097
 30
0.0
 10
806.6918455014521
 20
-429.2168672972097
 30
0.0
 10
807.5875703276171
 20
-430.1125921233747
 30
0.0
 10
807.5875703276171
 20
-431.2170897359458
 30
0.0
  0
SPLINE
  5
5E
330
58
100
AcDbEntity
  8
bohrungen
 62
     7
370
    35
100
AcDbSpline
210
0.0
220
0.0
230
1.0
 70
    11
 71
     3
 72
    17
 73
    13
 74
     0
 42
0.0000000001
 43
0.0000000001
 40
0.0
 40
0.0
 40
0.0
 40
0.0
 40
1.0
 40
1.0
 40
1.0
 40
2.0
 40
2.0
 40
2.0
 40
3.0
 40
3.0
 40
3.0
 40
4.0
 40
4.0
 40
4.0
 40
4.0
 10
777.8574298185565
 20
-379.2567815892136
 30
0.0
 10
777.8574298185565
 20
-380.3612792017847
 30
0.0
 10
776.9620495019401
 20
-381.2570040279497
 30
0.0
 10
775.857551889369
 20
-381.2570040279497
 30
0.0
 10
774.7530542767979
 20
-381.2570040279497
 30
0.0
 10
773.857329450633
 20
-380.3612792017847
 30
0.0
 10
773.857329450633
 20
-379.2567815892136
 30
0.0
 10
773.857329450633
 20
-378.1522839766425
 30
0.0
 10
774.7530542767979
 20
-377.2565591504775
 30
0.0
 10
775.857551889369
 20
-377.2565591504775
 30
0.0
 10
776.9620495019401
 20
-377.2565591504775
 30
0.0
 10
777.8574298185565
 20
-378.1522839766425
 30
0.0
 10
777.8574298185565
 20
-379.2567815892136
 30
0.0
  0
SPLINE
  5
5F
330
58
100
AcDbEntity
  8
bohrungen
 62
     7
370
    35
100
AcDbSpline
210
0.0
220
0.0
230
1.0
 70
    11
 71
     3
 72
    17
 73
    13
 74
     0
 42
0.0000000001
 43
0.0000000001
 40
0.0
 40
0.0
 40
0.0
 40
0.0
 40
1.0
 40
1.0
 40
1.0
 40
2.0
 40
2.0
 40
2.0
 40
3.0
 40
3.0
 40
3.0
 40
4.0
 40
4.0
 40
4.0
 40
4.0
 10
1097.117529022596
 20
-379.2567815892136
 30
0.0
 10
1097.117529022596
 20
-380.3612792017847
 30
0.0
 10
1096.222493215528
 20
-381.2570040279497
 30
0.0
 10
1095.117995602957
 20
-381.2570040279497
 30
0.0
 10
1094.013497990386
 20
-381.2570040279497
 30
0.0
 10
1093.117773164221
 20
-380.3612792017847
 30
0.0
 10
1093.117773164221
 20
-379.2567815892136
 30
0.0
 10
1093.117773164221
 20
-378.1522839766425
 30
0.0
 10
1094.013497990386
 20
-377.2565591504775
 30
0.0
 10
1095.117995602957
 20
-377.2565591504775
 30
0.0
 10
1096.222493215528
 20
-377.2565591504775
 30
0.0
 10
1097.117529022596
 20
-378.1522839766425
 30
0.0
 10
1097.117529022596
 20
-379.2567815892136
 30
0.0
  0
SPLINE
  5
60
330
58
100
AcDbEntity
  8
bohrungen
 62
     7
370
    35
100
AcDbSpline
210
0.0
220
0.0
230
1.0
 70
    11
 71
     3
 72
    17
 73
    13
 74
     0
 42
0.0000000001
 43
0.0000000001
 40
0.0
 40
0.0
 40
0.0
 40
0.0
 40
1.0
 40
1.0
 40
1.0
 40
2.0
 40
2.0
 40
2.0
 40
3.0
 40
3.0
 40
3.0
 40
4.0
 40
4.0
 40
4.0
 40
4.0
 10
1067.11763753704
 20
-431.2170897359458
 30
0.0
 10
1067.11763753704
 20
-432.3215873485169
 30
0.0
 10
1066.222601729972
 20
-433.2166231555847
 30
0.0
 10
1065.118104117401
 20
-433.2166231555847
 30
0.0
 10
1064.01360650483
 20
-433.2166231555847
 30
0.0
 10
1063.117881678665
 20
-432.3215873485169
 30
0.0
 10
1063.117881678665
 20
-431.2170897359458
 30
0.0
 10
1063.117881678665
 20
-430.1125921233747
 30
0.0
 10
1064.01360650483
 20
-429.2168672972097
 30
0.0
 10
1065.118104117401
 20
-429.2168672972097
 30
0.0
 10
1066.222601729972
 20
-429.2168672972097
 30
0.0
 10
1067.11763753704
 20
-430.1125921233747
 30
0.0
 10
1067.11763753704
 20
-431.2170897359458
 30
0.0
  0
SPLINE
  5
61
330
58
100
AcDbEntity
  8
bohrungen
 62
     7
370
    35
100
AcDbSpline
210
0.0
220
0.0
230
1.0
 70
    11
 71
     3
 72
    17
 73
    13
 74
     0
 42
0.0000000001
 43
0.0000000001
 40
0.0
 40
0.0
 40
0.0
 40
0.0
 40
1.0
 40
1.0
 40
1.0
 40
2.0
 40
2.0
 40
2.0
 40
3.0
 40
3.0
 40
3.0
 40
4.0
 40
4.0
 40
4.0
 40
4.0
 10
967.487543160906
 20
-154.7378417581905
 30
0.0
 10
967.487543160906
 20
-155.8423393707616
 30
0.0
 10
966.5925073538381
 20
-156.7380641969266
 30
0.0
 10
965.488009741267
 20
-156.7380641969266
 30
0.0
 10
964.3835121286959
 20
-156.7380641969266
 30
0.0
 10
963.4877873025308
 20
-155.8423393707616
 30
0.0
 10
963.4877873025308
 20
-154.7378417581905
 30
0.0
 10
963.4877873025308
 20
-153.6333441456194
 30
0.0
 10
964.3835121286959
 20
-152.7376193194545
 30
0.0
 10
965.488009741267
 20
-152.7376193194545
 30
0.0
 10
966.5925073538381
 20
-152.7376193194545
 30
0.0
 10
967.487543160906
 20
-153.6333441456194
 30
0.0
 10
967.487543160906
 20
-154.7378417581905
 30
0.0
  0
ENDBLK
  5
5B
330
58
100
AcDbEntity
  8
0
100
AcDbBlockEnd
  0
BLOCK
  5
64
330
62
100
AcDbEntity
  8
0
100
AcDbBlockBegin
  2
block 4
 70
     0
 71
     0
 10
0.0
 20
0.0
 30
0.0
  3
block 4
  1

  0
SPLINE
  5
66
330
62
100
AcDbEntity
  8
bohrungen
 62
     7
370
    35
100
AcDbSpline
210
0.0
220
0.0
230
1.0
 70
    11
 71
     3
 72
    17
 73
    13
 74
     0
 42
0.0000000001
 43
0.0000000001
 40
0.0
 40
0.0
 40
0.0
 40
0.0
 40
1.0
 40
1.0
 40
1.0
 40
2.0
 40
2.0
 40
2.0
 40
3.0
 40
3.0
 40
3.0
 40
4.0
 40
4.0
 40
4.0
 40
4.0
 10
1231.369799496845
 20
34.26216361990668
 30
0.0
 10
1231.369799496845
 20
33.15766600733559
 30
0.0
 10
1230.474419180229
 20
32.26194118117063
 30
0.0
 10
1229.369921567658
 20
32.26194118117063
 30
0.0
 10
1228.265423955087
 20
32.26194118117063
 30
0.0
 10
1227.369699128921
 20
33.15766600733559
 30
0.0
 10
1227.369699128921
 20
34.26216361990668
 30
0.0
 10
1227.369699128921
 20
35.36666123247778
 30
0.0
 10
1228.265423955087
 20
36.26238605864274
 30
0.0
 10
1229.369921567658
 20
36.26238605864274
 30
0.0
 10
1230.474419180229
 20
36.26238605864274
 30
0.0
 10
1231.369799496845
 20
35.36666123247778
 30
0.0
 10
1231.369799496845
 20
34.26216361990668
 30
0.0
  0
SPLINE
  5
67
330
62
100
AcDbEntity
  8
bohrungen
 62
     7
370
    35
100
AcDbSpline
210
0.0
220
0.0
230
1.0
 70
    11
 71
     3
 72
    17
 73
    13
 74
     0
 42
0.0000000001
 43
0.0000000001
 40
0.0
 40
0.0
 40
0.0
 40
0.0
 40
1.0
 40
1.0
 40
1.0
 40
2.0
 40
2.0
 40
2.0
 40
3.0
 40
3.0
 40
3.0
 40
4.0
 40
4.0
 40
4.0
 40
4.0
 10
1131.469954144216
 20
-242.2170843578485
 30
0.0
 10
1131.469954144216
 20
-243.3215819704196
 30
0.0
 10
1130.574229318051
 20
-244.2166177774875
 30
0.0
 10
1129.46973170548
 20
-244.2166177774875
 30
0.0
 10
1128.365234092909
 20
-244.2166177774875
 30
0.0
 10
1127.469853776292
 20
-243.3215819704196
 30
0.0
 10
1127.469853776292
 20
-242.2170843578485
 30
0.0
 10
1127.469853776292
 20
-241.1125867452774
 30
0.0
 10
1128.365234092909
 20
-240.2168619191125
 30
0.0
 10
1129.46973170548
 20
-240.2168619191125
 30
0.0
 10
1130.574229318051
 20
-240.2168619191125
 30
0.0
 10
1131.469954144216
 20
-241.1125867452774
 30
0.0
 10
1131.469954144216
 20
-242.2170843578485
 30
0.0
  0
SPLINE
  5
68
330
62
100
AcDbEntity
  8
bohrungen
 62
     7
370
    35
100
AcDbSpline
210
0.0
220
0.0
230
1.0
 70
    11
 71
     3
 72
    17
 73
    13
 74
     0
 42
0.0000000001
 43
0.0000000001
 40
0.0
 40
0.0
 40
0.0
 40
0.0
 40
1.0
 40
1.0
 40
1.0
 40
2.0
 40
2.0
 40
2.0
 40
3.0
 40
3.0
 40
3.0
 40
4.0
 40
4.0
 40
4.0
 40
4.0
 10
1101.739813635155
 20
-190.2567762111164
 30
0.0
 10
1101.739813635155
 20
-191.3612738236875
 30
0.0
 10
1100.844433318539
 20
-192.2569986498524
 30
0.0
 10
1099.739935705968
 20
-192.2569986498524
 30
0.0
 10
1098.635438093397
 20
-192.2569986498524
 30
0.0
 10
1097.739713267232
 20
-191.3612738236875
 30
0.0
 10
1097.739713267232
 20
-190.2567762111164
 30
0.0
 10
1097.739713267232
 20
-189.1522785985453
 30
0.0
 10
1098.635438093397
 20
-188.2565537723803
 30
0.0
 10
1099.739935705968
 20
-188.2565537723803
 30
0.0
 10
1100.844433318539
 20
-188.2565537723803
 30
0.0
 10
1101.739813635155
 20
-189.1522785985453
 30
0.0
 10
1101.739813635155
 20
-190.2567762111164
 30
0.0
  0
SPLINE
  5
69
330
62
100
AcDbEntity
  8
bohrungen
 62
     7
370
    35
100
AcDbSpline
210
0.0
220
0.0
230
1.0
 70
    11
 71
     3
 72
    17
 73
    13
 74
     0
 42
0.0000000001
 43
0.0000000001
 40
0.0
 40
0.0
 40
0.0
 40
0.0
 40
1.0
 40
1.0
 40
1.0
 40
2.0
 40
2.0
 40
2.0
 40
3.0
 40
3.0
 40
3.0
 40
4.0
 40
4.0
 40
4.0
 40
4.0
 10
1162.646690247533
 20
-224.2164604474181
 30
0.0
 10
1162.646690247533
 20
-225.3209580599892
 30
0.0
 10
1161.751309930916
 20
-226.2166828861542
 30
0.0
 10
1160.646467808797
 20
-226.2166828861542
 30
0.0
 10
1159.541970196226
 20
-226.2166828861542
 30
0.0
 10
1158.646934389158
 20
-225.3209580599892
 30
0.0
 10
1158.646934389158
 20
-224.2164604474181
 30
0.0
 10
1158.646934389158
 20
-223.111962834847
 30
0.0
 10
1159.541970196226
 20
-222.2162380086821
 30
0.0
 10
1160.646467808797
 20
-222.2162380086821
 30
0.0
 10
1161.751309930916
 20
-222.2162380086821
 30
0.0
 10
1162.646690247533
 20
-223.111962834847
 30
0.0
 10
1162.646690247533
 20
-224.2164604474181
 30
0.0
  0
SPLINE
  5
6A
330
62
100
AcDbEntity
  8
bohrungen
 62
     7
370
    35
100
AcDbSpline
210
0.0
220
0.0
230
1.0
 70
    11
 71
     3
 72
    17
 73
    13
 74
     0
 42
0.0000000001
 43
0.0000000001
 40
0.0
 40
0.0
 40
0.0
 40
0.0
 40
1.0
 40
1.0
 40
1.0
 40
2.0
 40
2.0
 40
2.0
 40
3.0
 40
3.0
 40
3.0
 40
4.0
 40
4.0
 40
4.0
 40
4.0
 10
1132.916894248021
 20
-172.256152300686
 30
0.0
 10
1132.916894248021
 20
-173.3606499132571
 30
0.0
 10
1132.021169421856
 20
-174.256374739422
 30
0.0
 10
1130.916671809285
 20
-174.256374739422
 30
0.0
 10
1129.812174196714
 20
-174.256374739422
 30
0.0
 10
1128.916793880097
 20
-173.3606499132571
 30
0.0
 10
1128.916793880097
 20
-172.256152300686
 30
0.0
 10
1128.916793880097
 20
-171.1516546881149
 30
0.0
 10
1129.812174196714
 20
-170.2559298619499
 30
0.0
 10
1130.916671809285
 20
-170.2559298619499
 30
0.0
 10
1132.021169421856
 20
-170.2559298619499
 30
0.0
 10
1132.916894248021
 20
-171.1516546881149
 30
0.0
 10
1132.916894248021
 20
-172.256152300686
 30
0.0
  0
SPLINE
  5
6B
330
62
100
AcDbEntity
  8
bohrungen
 62
     7
370
    35
100
AcDbSpline
210
0.0
220
0.0
230
1.0
 70
    11
 71
     3
 72
    17
 73
    13
 74
     0
 42
0.0000000001
 43
0.0000000001
 40
0.0
 40
0.0
 40
0.0
 40
0.0
 40
1.0
 40
1.0
 40
1.0
 40
2.0
 40
2.0
 40
2.0
 40
3.0
 40
3.0
 40
3.0
 40
4.0
 40
4.0
 40
4.0
 40
4.0
 10
1420.999912839195
 20
-190.2567762111164
 30
0.0
 10
1420.999912839195
 20
-191.3612738236875
 30
0.0
 10
1420.104877032127
 20
-192.2569986498524
 30
0.0
 10
1419.000379419555
 20
-192.2569986498524
 30
0.0
 10
1417.895881806984
 20
-192.2569986498524
 30
0.0
 10
1417.000156980819
 20
-191.3612738236875
 30
0.0
 10
1417.000156980819
 20
-190.2567762111164
 30
0.0
 10
1417.000156980819
 20
-189.1522785985453
 30
0.0
 10
1417.895881806984
 20
-188.2565537723803
 30
0.0
 10
1419.000379419555
 20
-188.2565537723803
 30
0.0
 10
1420.104877032127
 20
-188.2565537723803
 30
0.0
 10
1420.999912839195
 20
-189.1522785985453
 30
0.0
 10
1420.999912839195
 20
-190.2567762111164
 30
0.0
  0
SPLINE
  5
6C
330
62
100
AcDbEntity
  8
bohrungen
 62
     7
370
    35
100
AcDbSpline
210
0.0
220
0.0
230
1.0
 70
    11
 71
     3
 72
    17
 73
    13
 74
     0
 42
0.0000000001
 43
0.0000000001
 40
0.0
 40
0.0
 40
0.0
 40
0.0
 40
1.0
 40
1.0
 40
1.0
 40
2.0
 40
2.0
 40
2.0
 40
3.0
 40
3.0
 40
3.0
 40
4.0
 40
4.0
 40
4.0
 40
4.0
 10
1391.000021353639
 20
-242.2170843578485
 30
0.0
 10
1391.000021353639
 20
-243.3215819704196
 30
0.0
 10
1390.104985546571
 20
-244.2166177774875
 30
0.0
 10
1389.000487934
 20
-244.2166177774875
 30
0.0
 10
1387.895990321429
 20
-244.2166177774875
 30
0.0
 10
1387.000265495264
 20
-243.3215819704196
 30
0.0
 10
1387.000265495264
 20
-242.2170843578485
 30
0.0
 10
1387.000265495264
 20
-241.1125867452774
 30
0.0
 10
1387.895990321429
 20
-240.2168619191125
 30
0.0
 10
1389.000487934
 20
-240.2168619191125
 30
0.0
 10
1390.104985546571
 20
-240.2168619191125
 30
0.0
 10
1391.000021353639
 20
-241.1125867452774
 30
0.0
 10
1391.000021353639
 20
-242.2170843578485
 30
0.0
  0
SPLINE
  5
6D
330
62
100
AcDbEntity
  8
bohrungen
 62
     7
370
    35
100
AcDbSpline
210
0.0
220
0.0
230
1.0
 70
    11
 71
     3
 72
    17
 73
    13
 74
     0
 42
0.0000000001
 43
0.0000000001
 40
0.0
 40
0.0
 40
0.0
 40
0.0
 40
1.0
 40
1.0
 40
1.0
 40
2.0
 40
2.0
 40
2.0
 40
3.0
 40
3.0
 40
3.0
 40
4.0
 40
4.0
 40
4.0
 40
4.0
 10
1389.823176735877
 20
-172.256152300686
 30
0.0
 10
1389.823176735877
 20
-173.3606499132571
 30
0.0
 10
1388.927451909713
 20
-174.256374739422
 30
0.0
 10
1387.822954297141
 20
-174.256374739422
 30
0.0
 10
1386.71845668457
 20
-174.256374739422
 30
0.0
 10
1385.823420877502
 20
-173.3606499132571
 30
0.0
 10
1385.823420877502
 20
-172.256152300686
 30
0.0
 10
1385.823420877502
 20
-171.1516546881149
 30
0.0
 10
1386.71845668457
 20
-170.2559298619499
 30
0.0
 10
1387.822954297141
 20
-170.2559298619499
 30
0.0
 10
1388.927451909713
 20
-170.2559298619499
 30
0.0
 10
1389.823176735877
 20
-171.1516546881149
 30
0.0
 10
1389.823176735877
 20
-172.256152300686
 30
0.0
  0
SPLINE
  5
6E
330
62
100
AcDbEntity
  8
bohrungen
 62
     7
370
    35
100
AcDbSpline
210
0.0
220
0.0
230
1.0
 70
    11
 71
     3
 72
    17
 73
    13
 74
     0
 42
0.0000000001
 43
0.0000000001
 40
0.0
 40
0.0
 40
0.0
 40
0.0
 40
1.0
 40
1.0
 40
1.0
 40
2.0
 40
2.0
 40
2.0
 40
3.0
 40
3.0
 40
3.0
 40
4.0
 40
4.0
 40
4.0
 40
4.0
 10
1359.823285250322
 20
-224.2164604474181
 30
0.0
 10
1359.823285250322
 20
-225.3209580599892
 30
0.0
 10
1358.927560424157
 20
-226.2166828861542
 30
0.0
 10
1357.823062811586
 20
-226.2166828861542
 30
0.0
 10
1356.718565199015
 20
-226.2166828861542
 30
0.0
 10
1355.823529391947
 20
-225.3209580599892
 30
0.0
 10
1355.823529391947
 20
-224.2164604474181
 30
0.0
 10
1355.823529391947
 20
-223.111962834847
 30
0.0
 10
1356.718565199015
 20
-222.2162380086821
 30
0.0
 10
1357.823062811586
 20
-222.2162380086821
 30
0.0
 10
1358.927560424157
 20
-222.2162380086821
 30
0.0
 10
1359.823285250322
 20
-223.111962834847
 30
0.0
 10
1359.823285250322
 20
-224.2164604474181
 30
0.0
  0
SPLINE
  5
6F
330
62
100
AcDbEntity
  8
bohrungen
 62
     7
370
    35
100
AcDbSpline
210
0.0
220
0.0
230
1.0
 70
    11
 71
     3
 72
    17
 73
    13
 74
     0
 42
0.0000000001
 43
0.0000000001
 40
0.0
 40
0.0
 40
0.0
 40
0.0
 40
1.0
 40
1.0
 40
1.0
 40
2.0
 40
2.0
 40
2.0
 40
3.0
 40
3.0
 40
3.0
 40
4.0
 40
4.0
 40
4.0
 40
4.0
 10
1291.369926977505
 20
34.26216361990668
 30
0.0
 10
1291.369926977505
 20
33.15766600733559
 30
0.0
 10
1290.474891170437
 20
32.26194118117063
 30
0.0
 10
1289.370393557866
 20
32.26194118117063
 30
0.0
 10
1288.265895945295
 20
32.26194118117063
 30
0.0
 10
1287.37017111913
 20
33.15766600733559
 30
0.0
 10
1287.37017111913
 20
34.26216361990668
 30
0.0
 10
1287.37017111913
 20
35.36666123247778
 30
0.0
 10
1288.265895945295
 20
36.26238605864274
 30
0.0
 10
1289.370393557866
 20
36.26238605864274
 30
0.0
 10
1290.474891170437
 20
36.26238605864274
 30
0.0
 10
1291.369926977505
 20
35.36666123247778
 30
0.0
 10
1291.369926977505
 20
34.26216361990668
 30
0.0
  0
SPLINE
  5
70
330
62
100
AcDbEntity
  8
bohrungen
 62
     7
370
    35
100
AcDbSpline
210
0.0
220
0.0
230
1.0
 70
    11
 71
     3
 72
    17
 73
    13
 74
     0
 42
0.0000000001
 43
0.0000000001
 40
0.0
 40
0.0
 40
0.0
 40
0.0
 40
1.0
 40
1.0
 40
1.0
 40
2.0
 40
2.0
 40
2.0
 40
3.0
 40
3.0
 40
3.0
 40
4.0
 40
4.0
 40
4.0
 40
4.0
 10
1231.369799496845
 20
-1.737706162760018
 30
0.0
 10
1231.369799496845
 20
-2.842203775331116
 30
0.0
 10
1230.474419180229
 20
-3.737928601496074
 30
0.0
 10
1229.369921567658
 20
-3.737928601496074
 30
0.0
 10
1228.265423955087
 20
-3.737928601496074
 30
0.0
 10
1227.369699128921
 20
-2.842203775331116
 30
0.0
 10
1227.369699128921
 20
-1.737706162760018
 30
0.0
 10
1227.369699128921
 20
-0.6332085501889201
 30
0.0
 10
1228.265423955087
 20
0.2618272568789877
 30
0.0
 10
1229.369921567658
 20
0.2618272568789877
 30
0.0
 10
1230.474419180229
 20
0.2618272568789877
 30
0.0
 10
1231.369799496845
 20
-0.6332085501889201
 30
0.0
 10
1231.369799496845
 20
-1.737706162760018
 30
0.0
  0
SPLINE
  5
71
330
62
100
AcDbEntity
  8
bohrungen
 62
     7
370
    35
100
AcDbSpline
210
0.0
220
0.0
230
1.0
 70
    11
 71
     3
 72
    17
 73
    13
 74
     0
 42
0.0000000001
 43
0.0000000001
 40
0.0
 40
0.0
 40
0.0
 40
0.0
 40
1.0
 40
1.0
 40
1.0
 40
2.0
 40
2.0
 40
2.0
 40
3.0
 40
3.0
 40
3.0
 40
4.0
 40
4.0
 40
4.0
 40
4.0
 10
1291.369926977505
 20
-1.737706162760018
 30
0.0
 10
1291.369926977505
 20
-2.842203775331116
 30
0.0
 10
1290.474891170437
 20
-3.737928601496074
 30
0.0
 10
1289.370393557866
 20
-3.737928601496074
 30
0.0
 10
1288.265895945295
 20
-3.737928601496074
 30
0.0
 10
1287.37017111913
 20
-2.842203775331116
 30
0.0
 10
1287.37017111913
 20
-1.737706162760018
 30
0.0
 10
1287.37017111913
 20
-0.6332085501889201
 30
0.0
 10
1288.265895945295
 20
0.2618272568789877
 30
0.0
 10
1289.370393557866
 20
0.2618272568789877
 30
0.0
 10
1290.474891170437
 20
0.2618272568789877
 30
0.0
 10
1291.369926977505
 20
-0.6332085501889201
 30
0.0
 10
1291.369926977505
 20
-1.737706162760018
 30
0.0
  0
ENDBLK
  5
65
330
62
100
AcDbEntity
  8
0
100
AcDbBlockEnd
  0
BLOCK
  5
7A
330
78
100
AcDbEntity
  8
0
100
AcDbBlockBegin
  2
block 5
 70
     0
 71
     0
 10
0.0
 20
0.0
 30
0.0
  3
block 5
  1

  0
SPLINE
  5
7C
330
78
100
AcDbEntity
  8
bohrungen
 62
     7
370
    35
100
AcDbSpline
210
0.0
220
0.0
230
1.0
 70
    11
 71
     3
 72
    17
 73
    13
 74
     0
 42
0.0000000001
 43
0.0000000001
 40
0.0
 40
0.0
 40
0.0
 40
0.0
 40
1.0
 40
1.0
 40
1.0
 40
2.0
 40
2.0
 40
2.0
 40
3.0
 40
3.0
 40
3.0
 40
4.0
 40
4.0
 40
4.0
 40
4.0
 10
1231.369799496845
 20
-343.7378471362878
 30
0.0
 10
1231.369799496845
 20
-344.8423447488589
 30
0.0
 10
1230.474419180229
 20
-345.7380695750238
 30
0.0
 10
1229.369921567658
 20
-345.7380695750238
 30
0.0
 10
1228.265423955087
 20
-345.7380695750238
 30
0.0
 10
1227.369699128921
 20
-344.8423447488589
 30
0.0
 10
1227.369699128921
 20
-343.7378471362878
 30
0.0
 10
1227.369699128921
 20
-342.6333495237167
 30
0.0
 10
1228.265423955087
 20
-341.7376246975517
 30
0.0
 10
1229.369921567658
 20
-341.7376246975517
 30
0.0
 10
1230.474419180229
 20
-341.7376246975517
 30
0.0
 10
1231.369799496845
 20
-342.6333495237167
 30
0.0
 10
1231.369799496845
 20
-343.7378471362878
 30
0.0
  0
SPLINE
  5
7D
330
78
100
AcDbEntity
  8
bohrungen
 62
     7
370
    35
100
AcDbSpline
210
0.0
220
0.0
230
1.0
 70
    11
 71
     3
 72
    17
 73
    13
 74
     0
 42
0.0000000001
 43
0.0000000001
 40
0.0
 40
0.0
 40
0.0
 40
0.0
 40
1.0
 40
1.0
 40
1.0
 40
2.0
 40
2.0
 40
2.0
 40
3.0
 40
3.0
 40
3.0
 40
4.0
 40
4.0
 40
4.0
 40
4.0
 10
1131.469954144216
 20
-620.217095114043
 30
0.0
 10
1131.469954144216
 20
-621.3215927266141
 30
0.0
 10
1130.574229318051
 20
-622.216628533682
 30
0.0
 10
1129.46973170548
 20
-622.216628533682
 30
0.0
 10
1128.365234092909
 20
-622.216628533682
 30
0.0
 10
1127.469853776292
 20
-621.3215927266141
 30
0.0
 10
1127.469853776292
 20
-620.217095114043
 30
0.0
 10
1127.469853776292
 20
-619.1125975014719
 30
0.0
 10
1128.365234092909
 20
-618.216872675307
 30
0.0
 10
1129.46973170548
 20
-618.216872675307
 30
0.0
 10
1130.574229318051
 20
-618.216872675307
 30
0.0
 10
1131.469954144216
 20
-619.1125975014719
 30
0.0
 10
1131.469954144216
 20
-620.217095114043
 30
0.0
  0
SPLINE
  5
7E
330
78
100
AcDbEntity
  8
bohrungen
 62
     7
370
    35
100
AcDbSpline
210
0.0
220
0.0
230
1.0
 70
    11
 71
     3
 72
    17
 73
    13
 74
     0
 42
0.0000000001
 43
0.0000000001
 40
0.0
 40
0.0
 40
0.0
 40
0.0
 40
1.0
 40
1.0
 40
1.0
 40
2.0
 40
2.0
 40
2.0
 40
3.0
 40
3.0
 40
3.0
 40
4.0
 40
4.0
 40
4.0
 40
4.0
 10
1101.739813635155
 20
-568.2567869673109
 30
0.0
 10
1101.739813635155
 20
-569.361284579882
 30
0.0
 10
1100.844433318539
 20
-570.2570094060469
 30
0.0
 10
1099.739935705968
 20
-570.2570094060469
 30
0.0
 10
1098.635438093397
 20
-570.2570094060469
 30
0.0
 10
1097.739713267232
 20
-569.361284579882
 30
0.0
 10
1097.739713267232
 20
-568.2567869673109
 30
0.0
 10
1097.739713267232
 20
-567.1522893547398
 30
0.0
 10
1098.635438093397
 20
-566.2565645285748
 30
0.0
 10
1099.739935705968
 20
-566.2565645285748
 30
0.0
 10
1100.844433318539
 20
-566.2565645285748
 30
0.0
 10
1101.739813635155
 20
-567.1522893547398
 30
0.0
 10
1101.739813635155
 20
-568.2567869673109
 30
0.0
  0
SPLINE
  5
7F
330
78
100
AcDbEntity
  8
bohrungen
 62
     7
370
    35
100
AcDbSpline
210
0.0
220
0.0
230
1.0
 70
    11
 71
     3
 72
    17
 73
    13
 74
     0
 42
0.0000000001
 43
0.0000000001
 40
0.0
 40
0.0
 40
0.0
 40
0.0
 40
1.0
 40
1.0
 40
1.0
 40
2.0
 40
2.0
 40
2.0
 40
3.0
 40
3.0
 40
3.0
 40
4.0
 40
4.0
 40
4.0
 40
4.0
 10
1420.999912839195
 20
-568.2567869673109
 30
0.0
 10
1420.999912839195
 20
-569.361284579882
 30
0.0
 10
1420.104877032127
 20
-570.2570094060469
 30
0.0
 10
1419.000379419555
 20
-570.2570094060469
 30
0.0
 10
1417.895881806984
 20
-570.2570094060469
 30
0.0
 10
1417.000156980819
 20
-569.361284579882
 30
0.0
 10
1417.000156980819
 20
-568.2567869673109
 30
0.0
 10
1417.000156980819
 20
-567.1522893547398
 30
0.0
 10
1417.895881806984
 20
-566.2565645285748
 30
0.0
 10
1419.000379419555
 20
-566.2565645285748
 30
0.0
 10
1420.104877032127
 20
-566.2565645285748
 30
0.0
 10
1420.999912839195
 20
-567.1522893547398
 30
0.0
 10
1420.999912839195
 20
-568.2567869673109
 30
0.0
  0
SPLINE
  5
80
330
78
100
AcDbEntity
  8
bohrungen
 62
     7
370
    35
100
AcDbSpline
210
0.0
220
0.0
230
1.0
 70
    11
 71
     3
 72
    17
 73
    13
 74
     0
 42
0.0000000001
 43
0.0000000001
 40
0.0
 40
0.0
 40
0.0
 40
0.0
 40
1.0
 40
1.0
 40
1.0
 40
2.0
 40
2.0
 40
2.0
 40
3.0
 40
3.0
 40
3.0
 40
4.0
 40
4.0
 40
4.0
 40
4.0
 10
1391.000021353639
 20
-620.217095114043
 30
0.0
 10
1391.000021353639
 20
-621.3215927266141
 30
0.0
 10
1390.104985546571
 20
-622.216628533682
 30
0.0
 10
1389.000487934
 20
-622.216628533682
 30
0.0
 10
1387.895990321429
 20
-622.216628533682
 30
0.0
 10
1387.000265495264
 20
-621.3215927266141
 30
0.0
 10
1387.000265495264
 20
-620.217095114043
 30
0.0
 10
1387.000265495264
 20
-619.1125975014719
 30
0.0
 10
1387.895990321429
 20
-618.216872675307
 30
0.0
 10
1389.000487934
 20
-618.216872675307
 30
0.0
 10
1390.104985546571
 20
-618.216872675307
 30
0.0
 10
1391.000021353639
 20
-619.1125975014719
 30
0.0
 10
1391.000021353639
 20
-620.217095114043
 30
0.0
  0
SPLINE
  5
81
330
78
100
AcDbEntity
  8
bohrungen
 62
     7
370
    35
100
AcDbSpline
210
0.0
220
0.0
230
1.0
 70
    11
 71
     3
 72
    17
 73
    13
 74
     0
 42
0.0000000001
 43
0.0000000001
 40
0.0
 40
0.0
 40
0.0
 40
0.0
 40
1.0
 40
1.0
 40
1.0
 40
2.0
 40
2.0
 40
2.0
 40
3.0
 40
3.0
 40
3.0
 40
4.0
 40
4.0
 40
4.0
 40
4.0
 10
1291.369926977505
 20
-343.7378471362878
 30
0.0
 10
1291.369926977505
 20
-344.8423447488589
 30
0.0
 10
1290.474891170437
 20
-345.7380695750238
 30
0.0
 10
1289.370393557866
 20
-345.7380695750238
 30
0.0
 10
1288.265895945295
 20
-345.7380695750238
 30
0.0
 10
1287.37017111913
 20
-344.8423447488589
 30
0.0
 10
1287.37017111913
 20
-343.7378471362878
 30
0.0
 10
1287.37017111913
 20
-342.6333495237167
 30
0.0
 10
1288.265895945295
 20
-341.7376246975517
 30
0.0
 10
1289.370393557866
 20
-341.7376246975517
 30
0.0
 10
1290.474891170437
 20
-341.7376246975517
 30
0.0
 10
1291.369926977505
 20
-342.6333495237167
 30
0.0
 10
1291.369926977505
 20
-343.7378471362878
 30
0.0
  0
ENDBLK
  5
7B
330
78
100
AcDbEntity
  8
0
100
AcDbBlockEnd
  0
ENDSEC
  0
SECTION
  2
ENTITIES
  0
SPLINE
  5
3D
330
1F
100
AcDbEntity
  8
bodenplatte neu
 62
     7
370
    35
100
AcDbSpline
210
0.0
220
0.0
230
1.0
 70
    11
 71
     3
 72
   131
 73
   127
 74
     0
 42
0.0000000001
 43
0.0000000001
 40
0.0
 40
0.0
 40
0.0
 40
0.0
 40
1.0
 40
1.0
 40
1.0
 40
2.0
 40
2.0
 40
2.0
 40
3.0
 40
3.0
 40
3.0
 40
4.0
 40
4.0
 40
4.0
 40
5.0
 40
5.0
 40
5.0
 40
6.0
 40
6.0
 40
6.0
 40
7.0
 40
7.0
 40
7.0
 40
8.0
 40
8.0
 40
8.0
 40
9.0
 40
9.0
 40
9.0
 40
10.0
 40
10.0
 40
10.0
 40
11.0
 40
11.0
 40
11.0
 40
12.0
 40
12.0
 40
12.0
 40
13.0
 40
13.0
 40
13.0
 40
14.0
 40
14.0
 40
14.0
 40
15.0
 40
15.0
 40
15.0
 40
16.0
 40
16.0
 40
16.0
 40
17.0
 40
17.0
 40
17.0
 40
18.0
 40
18.0
 40
18.0
 40
19.0
 40
19.0
 40
19.0
 40
20.0
 40
20.0
 40
20.0
 40
21.0
 40
21.0
 40
21.0
 40
22.0
 40
22.0
 40
22.0
 40
23.0
 40
23.0
 40
23.0
 40
24.0
 40
24.0
 40
24.0
 40
25.0
 40
25.0
 40
25.0
 40
26.0
 40
26.0
 40
26.0
 40
27.0
 40
27.0
 40
27.0
 40
28.0
 40
28.0
 40
28.0
 40
29.0
 40
29.0
 40
29.0
 40
30.0
 40
30.0
 40
30.0
 40
31.0
 40
31.0
 40
31.0
 40
32.0
 40
32.0
 40
32.0
 40
33.0
 40
33.0
 40
33.0
 40
34.0
 40
34.0
 40
34.0
 40
35.0
 40
35.0
 40
35.0
 40
36.0
 40
36.0
 40
36.0
 40
37.0
 40
37.0
 40
37.0
 40
38.0
 40
38.0
 40
38.0
 40
39.0
 40
39.0
 40
39.0
 40
40.0
 40
40.0
 40
40.0
 40
41.0
 40
41.0
 40
41.0
 40
42.0
 40
42.0
 40
42.0
 40
42.0
 10
1038.832714584042
 20
235.1927069181984
 30
0.0
 10
1038.832714584042
 20
235.1927069181984
 30
0.0
 10
969.584228273229
 20
235.1927069181984
 30
0.0
 10
969.584228273229
 20
235.1927069181984
 30
0.0
 10
969.5483992801824
 20
232.9589070055624
 30
0.0
 10
967.7300778830676
 20
231.1585001049708
 30
0.0
 10
965.4873207221699
 20
231.1585001049708
 30
0.0
 10
963.2452525803693
 20
231.1585001049708
 30
0.0
 10
961.4262421641573
 20
232.9589070055624
 30
0.0
 10
961.3911021902078
 20
235.1927069181984
 30
0.0
 10
961.3911021902078
 20
235.1927069181984
 30
0.0
 10
955.4868975475866
 20
235.1927069181984
 30
0.0
 10
955.4868975475866
 20
235.1927069181984
 30
0.0
 10
955.4868975475866
 20
235.1927069181984
 30
0.0
 10
955.4868975475866
 20
234.2590860416957
 30
0.0
 10
955.4868975475866
 20
234.2590860416957
 30
0.0
 10
955.4868975475866
 20
232.0593925743636
 30
0.0
 10
953.6864906469951
 20
230.2593301833206
 30
0.0
 10
951.4864526701145
 20
230.2593301833206
 30
0.0
 10
951.4864526701145
 20
230.2593301833206
 30
0.0
 10
919.48702776492
 20
230.2593301833206
 30
0.0
 10
919.48702776492
 20
230.2593301833206
 30
0.0
 10
917.2869897880394
 20
230.2593301833206
 30
0.0
 10
915.4869273969964
 20
232.0593925743636
 30
0.0
 10
915.4869273969964
 20
234.2590860416957
 30
0.0
 10
915.4869273969964
 20
234.2590860416957
 30
0.0
 10
915.4869273969964
 20
235.1927069181984
 30
0.0
 10
915.4869273969964
 20
235.1927069181984
 30
0.0
 10
915.4869273969964
 20
235.1927069181984
 30
0.0
 10
909.5844453021178
 20
235.1927069181984
 30
0.0
 10
909.5844453021178
 20
235.1927069181984
 30
0.0
 10
909.5486163090712
 20
232.9589070055624
 30
0.0
 10
907.7296058928594
 20
231.1585001049708
 30
0.0
 10
905.4875377510588
 20
231.1585001049708
 30
0.0
 10
903.2454696092581
 20
231.1585001049708
 30
0.0
 10
901.4264591930462
 20
232.9589070055624
 30
0.0
 10
901.3906301999996
 20
235.1927069181984
 30
0.0
 10
901.3906301999996
 20
235.1927069181984
 30
0.0
 10
832.1414548700897
 20
235.1927069181984
 30
0.0
 10
832.1414548700897
 20
235.1927069181984
 30
0.0
 10
832.1414548700897
 20
235.1927069181984
 30
0.0
 10
728.7961695226621
 20
56.19226344081305
 30
0.0
 10
728.7961695226621
 20
56.19226344081305
 30
0.0
 10
728.7961695226621
 20
56.19226344081305
 30
0.0
 10
763.4204126780685
 20
-3.779269747319072
 30
0.0
 10
763.4204126780685
 20
-3.779269747319072
 30
0.0
 10
765.3727482895596
 20
-2.692686631271273
 30
0.0
 10
767.8415037142896
 20
-3.367925346380241
 30
0.0
 10
768.96253778519
 20
-5.309581161867049
 30
0.0
 10
770.0835718560902
 20
-7.251925996450908
 30
0.0
 10
769.4338268475722
 20
-9.727571612151442
 30
0.0
 10
767.5169757195791
 20
-10.87478840873964
 30
0.0
 10
767.5169757195791
 20
-10.87478840873964
 30
0.0
 10
770.4694225504383
 20
-15.98799912794744
 30
0.0
 10
770.4694225504383
 20
-15.98799912794744
 30
0.0
 10
770.4694225504383
 20
-15.98799912794744
 30
0.0
 10
771.2776419512778
 20
-15.52084418014757
 30
0.0
 10
771.2776419512778
 20
-15.52084418014757
 30
0.0
 10
773.182779754621
 20
-14.42116970125582
 30
0.0
 10
775.6415444024439
 20
-15.07987195803559
 30
0.0
 10
776.741563390884
 20
-16.98500976137875
 30
0.0
 10
776.741563390884
 20
-16.98500976137875
 30
0.0
 10
792.7412758434814
 20
-44.69804686382549
 30
0.0
 10
792.7412758434814
 20
-44.69804686382549
 30
0.0
 10
793.8412948319217
 20
-46.60318466716865
 30
0.0
 10
793.1825925751419
 20
-49.06229382453999
 30
0.0
 10
791.2774547717987
 20
-50.16196830343173
 30
0.0
 10
791.2774547717987
 20
-50.16196830343173
 30
0.0
 10
790.4688908614106
 20
-50.62843423213456
 30
0.0
 10
790.4688908614106
 20
-50.62843423213456
 30
0.0
 10
790.4688908614106
 20
-50.62843423213456
 30
0.0
 10
793.4206486731726
 20
-55.74026691314827
 30
0.0
 10
793.4206486731726
 20
-55.74026691314827
 30
0.0
 10
795.3726397751152
 20
-54.65437281619752
 30
0.0
 10
797.8413951998452
 20
-55.32961153130649
 30
0.0
 10
798.9624292707456
 20
-57.27126734679329
 30
0.0
 10
800.0834633416458
 20
-59.21292316228011
 30
0.0
 10
799.4337183331277
 20
-61.68856877798064
 30
0.0
 10
797.5172117146832
 20
-62.83647459366588
 30
0.0
 10
797.5172117146832
 20
-62.83647459366588
 30
0.0
 10
832.1414548700897
 20
-122.807318762701
 30
0.0
 10
832.1414548700897
 20
-122.807318762701
 30
0.0
 10
832.1414548700897
 20
-122.807318762701
 30
0.0
 10
1038.832714584042
 20
-122.807318762701
 30
0.0
 10
1038.832714584042
 20
-122.807318762701
 30
0.0
 10
1038.832714584042
 20
-122.807318762701
 30
0.0
 10
1073.457991268094
 20
-62.83647459366588
 30
0.0
 10
1073.457991268094
 20
-62.83647459366588
 30
0.0
 10
1071.540451121004
 20
-61.68856877798064
 30
0.0
 10
1070.890706112486
 20
-59.21361218137716
 30
0.0
 10
1072.012429202483
 20
-57.27126734679329
 30
0.0
 10
1073.133463273383
 20
-55.32961153130649
 30
0.0
 10
1075.602218698113
 20
-54.65437281619752
 30
0.0
 10
1077.554209800056
 20
-55.74026691314827
 30
0.0
 10
1077.554209800056
 20
-55.74026691314827
 30
0.0
 10
1080.506656630915
 20
-50.62774521303751
 30
0.0
 10
1080.506656630915
 20
-50.62774521303751
 30
0.0
 10
1080.506656630915
 20
-50.62774521303751
 30
0.0
 10
1079.697748210978
 20
-50.16059026523763
 30
0.0
 10
1079.697748210978
 20
-50.16059026523763
 30
0.0
 10
1077.792610407635
 20
-49.06091578634589
 30
0.0
 10
1077.133908150855
 20
-46.60180662897455
 30
0.0
 10
1078.234271648844
 20
-44.69666882563139
 30
0.0
 10
1078.234271648844
 20
-44.69666882563139
 30
0.0
 10
1094.233984101442
 20
-16.98363172318465
 30
0.0
 10
1094.233984101442
 20
-16.98363172318465
 30
0.0
 10
1095.333658580333
 20
-15.07849391984149
 30
0.0
 10
1097.792767737705
 20
-14.41979166306172
 30
0.0
 10
1099.697905541048
 20
-15.51946614195347
 30
0.0
 10
1099.697905541048
 20
-15.51946614195347
 30
0.0
 10
1100.506124941887
 20
-15.98662108975335
 30
0.0
 10
1100.506124941887
 20
-15.98662108975335
 30
0.0
 10
1100.506124941887
 20
-15.98662108975335
 30
0.0
 10
1103.45788275365
 20
-10.87478840873964
 30
0.0
 10
1103.45788275365
 20
-10.87478840873964
 30
0.0
 10
1101.541031625656
 20
-9.727571612151442
 30
0.0
 10
1100.891286617138
 20
-7.251925996450908
 30
0.0
 10
1102.012320688039
 20
-5.3102701809641
 30
0.0
 10
1103.133354758939
 20
-3.368614365477291
 30
0.0
 10
1105.602110183669
 20
-2.693375650368323
 30
0.0
 10
1107.554790304709
 20
-3.779269747319072
 30
0.0
 10
1107.554790304709
 20
-3.779269747319072
 30
0.0
 10
1142.179377969664
 20
56.19226344081305
 30
0.0
 10
1142.179377969664
 20
56.19226344081305
 30
0.0
 10
1142.179377969664
 20
56.19226344081305
 30
0.0
 10
1038.832714584042
 20
235.1927069181984
 30
0.0
 10
1038.832714584042
 20
235.1927069181984
 30
0.0
  0
SPLINE
  5
3E
330
1F
100
AcDbEntity
  8
bodenplatte neu
 62
     7
370
    35
100
AcDbSpline
210
0.0
220
0.0
230
1.0
 70
    11
 71
     3
 72
   131
 73
   127
 74
     0
 42
0.0000000001
 43
0.0000000001
 40
0.0
 40
0.0
 40
0.0
 40
0.0
 40
1.0
 40
1.0
 40
1.0
 40
2.0
 40
2.0
 40
2.0
 40
3.0
 40
3.0
 40
3.0
 40
4.0
 40
4.0
 40
4.0
 40
5.0
 40
5.0
 40
5.0
 40
6.0
 40
6.0
 40
6.0
 40
7.0
 40
7.0
 40
7.0
 40
8.0
 40
8.0
 40
8.0
 40
9.0
 40
9.0
 40
9.0
 40
10.0
 40
10.0
 40
10.0
 40
11.0
 40
11.0
 40
11.0
 40
12.0
 40
12.0
 40
12.0
 40
13.0
 40
13.0
 40
13.0
 40
14.0
 40
14.0
 40
14.0
 40
15.0
 40
15.0
 40
15.0
 40
16.0
 40
16.0
 40
16.0
 40
17.0
 40
17.0
 40
17.0
 40
18.0
 40
18.0
 40
18.0
 40
19.0
 40
19.0
 40
19.0
 40
20.0
 40
20.0
 40
20.0
 40
21.0
 40
21.0
 40
21.0
 40
22.0
 40
22.0
 40
22.0
 40
23.0
 40
23.0
 40
23.0
 40
24.0
 40
24.0
 40
24.0
 40
25.0
 40
25.0
 40
25.0
 40
26.0
 40
26.0
 40
26.0
 40
27.0
 40
27.0
 40
27.0
 40
28.0
 40
28.0
 40
28.0
 40
29.0
 40
29.0
 40
29.0
 40
30.0
 40
30.0
 40
30.0
 40
31.0
 40
31.0
 40
31.0
 40
32.0
 40
32.0
 40
32.0
 40
33.0
 40
33.0
 40
33.0
 40
34.0
 40
34.0
 40
34.0
 40
35.0
 40
35.0
 40
35.0
 40
36.0
 40
36.0
 40
36.0
 40
37.0
 40
37.0
 40
37.0
 40
38.0
 40
38.0
 40
38.0
 40
39.0
 40
39.0
 40
39.0
 40
40.0
 40
40.0
 40
40.0
 40
41.0
 40
41.0
 40
41.0
 40
42.0
 40
42.0
 40
42.0
 40
42.0
 10
1038.832714584042
 20
-142.8074760927704
 30
0.0
 10
1038.832714584042
 20
-142.8074760927704
 30
0.0
 10
969.584228273229
 20
-142.8074760927704
 30
0.0
 10
969.584228273229
 20
-142.8074760927704
 30
0.0
 10
969.5483992801824
 20
-145.0412760054064
 30
0.0
 10
967.7300778830676
 20
-146.8416829059979
 30
0.0
 10
965.4873207221699
 20
-146.8416829059979
 30
0.0
 10
963.2452525803693
 20
-146.8416829059979
 30
0.0
 10
961.4262421641573
 20
-145.0412760054064
 30
0.0
 10
961.3911021902078
 20
-142.8074760927704
 30
0.0
 10
961.3911021902078
 20
-142.8074760927704
 30
0.0
 10
955.4868975475866
 20
-142.8074760927704
 30
0.0
 10
955.4868975475866
 20
-142.8074760927704
 30
0.0
 10
955.4868975475866
 20
-142.8074760927704
 30
0.0
 10
955.4868975475866
 20
-143.7410969692731
 30
0.0
 10
955.4868975475866
 20
-143.7410969692731
 30
0.0
 10
955.4868975475866
 20
-145.9404459270566
 30
0.0
 10
953.6864906469951
 20
-147.7408528276481
 30
0.0
 10
951.4864526701145
 20
-147.7408528276481
 30
0.0
 10
951.4864526701145
 20
-147.7408528276481
 30
0.0
 10
919.48702776492
 20
-147.7408528276481
 30
0.0
 10
919.48702776492
 20
-147.7408528276481
 30
0.0
 10
917.2869897880394
 20
-147.7408528276481
 30
0.0
 10
915.4869273969964
 20
-145.9404459270566
 30
0.0
 10
915.4869273969964
 20
-143.7410969692731
 30
0.0
 10
915.4869273969964
 20
-143.7410969692731
 30
0.0
 10
915.4869273969964
 20
-142.8074760927704
 30
0.0
 10
915.4869273969964
 20
-142.8074760927704
 30
0.0
 10
915.4869273969964
 20
-142.8074760927704
 30
0.0
 10
909.5844453021178
 20
-142.8074760927704
 30
0.0
 10
909.5844453021178
 20
-142.8074760927704
 30
0.0
 10
909.5486163090712
 20
-145.0412760054064
 30
0.0
 10
907.7296058928594
 20
-146.8416829059979
 30
0.0
 10
905.4875377510588
 20
-146.8416829059979
 30
0.0
 10
903.2454696092581
 20
-146.8416829059979
 30
0.0
 10
901.4264591930462
 20
-145.0412760054064
 30
0.0
 10
901.3906301999996
 20
-142.8074760927704
 30
0.0
 10
901.3906301999996
 20
-142.8074760927704
 30
0.0
 10
832.1414548700897
 20
-142.8074760927704
 30
0.0
 10
832.1414548700897
 20
-142.8074760927704
 30
0.0
 10
832.1414548700897
 20
-142.8074760927704
 30
0.0
 10
728.7961695226621
 20
-321.8077473153814
 30
0.0
 10
728.7961695226621
 20
-321.8077473153814
 30
0.0
 10
728.7961695226621
 20
-321.8077473153814
 30
0.0
 10
763.4204126780685
 20
-381.7792805035135
 30
0.0
 10
763.4204126780685
 20
-381.7792805035135
 30
0.0
 10
765.3727482895596
 20
-380.6926973874657
 30
0.0
 10
767.8415037142896
 20
-381.3679361025747
 30
0.0
 10
768.96253778519
 20
-383.3095919180615
 30
0.0
 10
770.0835718560902
 20
-385.2519367526453
 30
0.0
 10
769.4338268475722
 20
-387.7275823683459
 30
0.0
 10
767.5169757195791
 20
-388.8747991649341
 30
0.0
 10
767.5169757195791
 20
-388.8747991649341
 30
0.0
 10
770.4694225504383
 20
-393.9880098841419
 30
0.0
 10
770.4694225504383
 20
-393.9880098841419
 30
0.0
 10
770.4694225504383
 20
-393.9880098841419
 30
0.0
 10
771.2776419512778
 20
-393.520854936342
 30
0.0
 10
771.2776419512778
 20
-393.520854936342
 30
0.0
 10
773.182779754621
 20
-392.4211804574503
 30
0.0
 10
775.6415444024439
 20
-393.0798827142301
 30
0.0
 10
776.741563390884
 20
-394.9850205175732
 30
0.0
 10
776.741563390884
 20
-394.9850205175732
 30
0.0
 10
792.7412758434814
 20
-422.6980576200199
 30
0.0
 10
792.7412758434814
 20
-422.6980576200199
 30
0.0
 10
793.8412948319217
 20
-424.6031954233631
 30
0.0
 10
793.1825925751419
 20
-427.0623045807345
 30
0.0
 10
791.2774547717987
 20
-428.1619790596262
 30
0.0
 10
791.2774547717987
 20
-428.1619790596262
 30
0.0
 10
790.4688908614106
 20
-428.628444988329
 30
0.0
 10
790.4688908614106
 20
-428.628444988329
 30
0.0
 10
790.4688908614106
 20
-428.628444988329
 30
0.0
 10
793.4206486731726
 20
-433.7402776693427
 30
0.0
 10
793.4206486731726
 20
-433.7402776693427
 30
0.0
 10
795.3726397751152
 20
-432.654383572392
 30
0.0
 10
797.8413951998452
 20
-433.329622287501
 30
0.0
 10
798.9624292707456
 20
-435.2712781029878
 30
0.0
 10
800.0834633416458
 20
-437.2129339184746
 30
0.0
 10
799.4337183331277
 20
-439.6885795341751
 30
0.0
 10
797.5172117146832
 20
-440.8364853498604
 30
0.0
 10
797.5172117146832
 20
-440.8364853498604
 30
0.0
 10
832.1414548700897
 20
-500.8073295188954
 30
0.0
 10
832.1414548700897
 20
-500.8073295188954
 30
0.0
 10
832.1414548700897
 20
-500.8073295188954
 30
0.0
 10
1038.832714584042
 20
-500.8073295188954
 30
0.0
 10
1038.832714584042
 20
-500.8073295188954
 30
0.0
 10
1038.832714584042
 20
-500.8073295188954
 30
0.0
 10
1073.457991268094
 20
-440.8364853498604
 30
0.0
 10
1073.457991268094
 20
-440.8364853498604
 30
0.0
 10
1071.540451121004
 20
-439.6885795341751
 30
0.0
 10
1070.890706112486
 20
-437.2136229375716
 30
0.0
 10
1072.012429202483
 20
-435.2712781029878
 30
0.0
 10
1073.133463273383
 20
-433.329622287501
 30
0.0
 10
1075.602218698113
 20
-432.654383572392
 30
0.0
 10
1077.554209800056
 20
-433.7402776693427
 30
0.0
 10
1077.554209800056
 20
-433.7402776693427
 30
0.0
 10
1080.506656630915
 20
-428.6277559692319
 30
0.0
 10
1080.506656630915
 20
-428.6277559692319
 30
0.0
 10
1080.506656630915
 20
-428.6277559692319
 30
0.0
 10
1079.697748210978
 20
-428.1606010214321
 30
0.0
 10
1079.697748210978
 20
-428.1606010214321
 30
0.0
 10
1077.792610407635
 20
-427.0609265425404
 30
0.0
 10
1077.133908150855
 20
-424.601817385169
 30
0.0
 10
1078.234271648844
 20
-422.6966795818258
 30
0.0
 10
1078.234271648844
 20
-422.6966795818258
 30
0.0
 10
1094.233984101442
 20
-394.9836424793791
 30
0.0
 10
1094.233984101442
 20
-394.9836424793791
 30
0.0
 10
1095.333658580333
 20
-393.0785046760359
 30
0.0
 10
1097.792767737705
 20
-392.4198024192562
 30
0.0
 10
1099.697905541048
 20
-393.5194768981479
 30
0.0
 10
1099.697905541048
 20
-393.5194768981479
 30
0.0
 10
1100.506124941887
 20
-393.9866318459478
 30
0.0
 10
1100.506124941887
 20
-393.9866318459478
 30
0.0
 10
1100.506124941887
 20
-393.9866318459478
 30
0.0
 10
1103.45788275365
 20
-388.8747991649341
 30
0.0
 10
1103.45788275365
 20
-388.8747991649341
 30
0.0
 10
1101.541031625656
 20
-387.7275823683459
 30
0.0
 10
1100.891286617138
 20
-385.2519367526453
 30
0.0
 10
1102.012320688039
 20
-383.3102809371586
 30
0.0
 10
1103.133354758939
 20
-381.3686251216718
 30
0.0
 10
1105.602110183669
 20
-380.6933864065628
 30
0.0
 10
1107.554790304709
 20
-381.7792805035135
 30
0.0
 10
1107.554790304709
 20
-381.7792805035135
 30
0.0
 10
1142.179377969664
 20
-321.8077473153814
 30
0.0
 10
1142.179377969664
 20
-321.8077473153814
 30
0.0
 10
1142.179377969664
 20
-321.8077473153814
 30
0.0
 10
1038.832714584042
 20
-142.8074760927704
 30
0.0
 10
1038.832714584042
 20
-142.8074760927704
 30
0.0
  0
SPLINE
  5
3F
330
1F
100
AcDbEntity
  8
bodenplatte neu
 62
     7
370
    35
100
AcDbSpline
210
0.0
220
0.0
230
1.0
 70
    11
 71
     3
 72
   131
 73
   127
 74
     0
 42
0.0000000001
 43
0.0000000001
 40
0.0
 40
0.0
 40
0.0
 40
0.0
 40
1.0
 40
1.0
 40
1.0
 40
2.0
 40
2.0
 40
2.0
 40
3.0
 40
3.0
 40
3.0
 40
4.0
 40
4.0
 40
4.0
 40
5.0
 40
5.0
 40
5.0
 40
6.0
 40
6.0
 40
6.0
 40
7.0
 40
7.0
 40
7.0
 40
8.0
 40
8.0
 40
8.0
 40
9.0
 40
9.0
 40
9.0
 40
10.0
 40
10.0
 40
10.0
 40
11.0
 40
11.0
 40
11.0
 40
12.0
 40
12.0
 40
12.0
 40
13.0
 40
13.0
 40
13.0
 40
14.0
 40
14.0
 40
14.0
 40
15.0
 40
15.0
 40
15.0
 40
16.0
 40
16.0
 40
16.0
 40
17.0
 40
17.0
 40
17.0
 40
18.0
 40
18.0
 40
18.0
 40
19.0
 40
19.0
 40
19.0
 40
20.0
 40
20.0
 40
20.0
 40
21.0
 40
21.0
 40
21.0
 40
22.0
 40
22.0
 40
22.0
 40
23.0
 40
23.0
 40
23.0
 40
24.0
 40
24.0
 40
24.0
 40
25.0
 40
25.0
 40
25.0
 40
26.0
 40
26.0
 40
26.0
 40
27.0
 40
27.0
 40
27.0
 40
28.0
 40
28.0
 40
28.0
 40
29.0
 40
29.0
 40
29.0
 40
30.0
 40
30.0
 40
30.0
 40
31.0
 40
31.0
 40
31.0
 40
32.0
 40
32.0
 40
32.0
 40
33.0
 40
33.0
 40
33.0
 40
34.0
 40
34.0
 40
34.0
 40
35.0
 40
35.0
 40
35.0
 40
36.0
 40
36.0
 40
36.0
 40
37.0
 40
37.0
 40
37.0
 40
38.0
 40
38.0
 40
38.0
 40
39.0
 40
39.0
 40
39.0
 40
40.0
 40
40.0
 40
40.0
 40
41.0
 40
41.0
 40
41.0
 40
42.0
 40
42.0
 40
42.0
 40
42.0
 10
1362.715098400641
 20
46.19252928532687
 30
0.0
 10
1362.715098400641
 20
46.19252928532687
 30
0.0
 10
1293.466612089828
 20
46.19252928532687
 30
0.0
 10
1293.466612089828
 20
46.19252928532687
 30
0.0
 10
1293.430783096781
 20
43.95872937269088
 30
0.0
 10
1291.612461699666
 20
42.15832247209931
 30
0.0
 10
1289.369704538769
 20
42.15832247209931
 30
0.0
 10
1287.127636396968
 20
42.15832247209931
 30
0.0
 10
1285.308625980756
 20
43.95872937269088
 30
0.0
 10
1285.273486006807
 20
46.19252928532687
 30
0.0
 10
1285.273486006807
 20
46.19252928532687
 30
0.0
 10
1279.369281364186
 20
46.19252928532687
 30
0.0
 10
1279.369281364186
 20
46.19252928532687
 30
0.0
 10
1279.369281364186
 20
46.19252928532687
 30
0.0
 10
1279.369281364186
 20
45.25890840882416
 30
0.0
 10
1279.369281364186
 20
45.25890840882416
 30
0.0
 10
1279.369281364186
 20
43.05955945104067
 30
0.0
 10
1277.568874463594
 20
41.2591525504491
 30
0.0
 10
1275.368836486713
 20
41.2591525504491
 30
0.0
 10
1275.368836486713
 20
41.2591525504491
 30
0.0
 10
1243.369411581519
 20
41.2591525504491
 30
0.0
 10
1243.369411581519
 20
41.2591525504491
 30
0.0
 10
1241.169373604638
 20
41.2591525504491
 30
0.0
 10
1239.369311213595
 20
43.05955945104067
 30
0.0
 10
1239.369311213595
 20
45.25890840882416
 30
0.0
 10
1239.369311213595
 20
45.25890840882416
 30
0.0
 10
1239.369311213595
 20
46.19252928532687
 30
0.0
 10
1239.369311213595
 20
46.19252928532687
 30
0.0
 10
1239.369311213595
 20
46.19252928532687
 30
0.0
 10
1233.466829118717
 20
46.19252928532687
 30
0.0
 10
1233.466829118717
 20
46.19252928532687
 30
0.0
 10
1233.43100012567
 20
43.95872937269088
 30
0.0
 10
1231.611989709458
 20
42.15832247209931
 30
0.0
 10
1229.369921567658
 20
42.15832247209931
 30
0.0
 10
1227.127853425857
 20
42.15832247209931
 30
0.0
 10
1225.308843009645
 20
43.95872937269088
 30
0.0
 10
1225.273014016598
 20
46.19252928532687
 30
0.0
 10
1225.273014016598
 20
46.19252928532687
 30
0.0
 10
1156.023838686689
 20
46.19252928532687
 30
0.0
 10
1156.023838686689
 20
46.19252928532687
 30
0.0
 10
1156.023838686689
 20
46.19252928532687
 30
0.0
 10
1052.678553339261
 20
-132.8077419372842
 30
0.0
 10
1052.678553339261
 20
-132.8077419372842
 30
0.0
 10
1052.678553339261
 20
-132.8077419372842
 30
0.0
 10
1087.302796494668
 20
-192.7792751254163
 30
0.0
 10
1087.302796494668
 20
-192.7792751254163
 30
0.0
 10
1089.255132106158
 20
-191.6926920093685
 30
0.0
 10
1091.723887530889
 20
-192.3679307244775
 30
0.0
 10
1092.844921601789
 20
-194.3095865399643
 30
0.0
 10
1093.965955672689
 20
-196.2519313745481
 30
0.0
 10
1093.316210664171
 20
-198.7275769902487
 30
0.0
 10
1091.399359536178
 20
-199.8747937868369
 30
0.0
 10
1091.399359536178
 20
-199.8747937868369
 30
0.0
 10
1094.351806367037
 20
-204.9880045060447
 30
0.0
 10
1094.351806367037
 20
-204.9880045060447
 30
0.0
 10
1094.351806367037
 20
-204.9880045060447
 30
0.0
 10
1095.160025767877
 20
-204.5208495582448
 30
0.0
 10
1095.160025767877
 20
-204.5208495582448
 30
0.0
 10
1097.06516357122
 20
-203.421175079353
 30
0.0
 10
1099.523928219043
 20
-204.0798773361328
 30
0.0
 10
1100.623947207483
 20
-205.985015139476
 30
0.0
 10
1100.623947207483
 20
-205.985015139476
 30
0.0
 10
1116.62365966008
 20
-233.6980522419227
 30
0.0
 10
1116.62365966008
 20
-233.6980522419227
 30
0.0
 10
1117.72367864852
 20
-235.6031900452659
 30
0.0
 10
1117.064976391741
 20
-238.0622992026372
 30
0.0
 10
1115.159838588398
 20
-239.161973681529
 30
0.0
 10
1115.159838588398
 20
-239.161973681529
 30
0.0
 10
1114.35127467801
 20
-239.6284396102318
 30
0.0
 10
1114.35127467801
 20
-239.6284396102318
 30
0.0
 10
1114.35127467801
 20
-239.6284396102318
 30
0.0
 10
1117.303032489772
 20
-244.7402722912455
 30
0.0
 10
1117.303032489772
 20
-244.7402722912455
 30
0.0
 10
1119.255023591714
 20
-243.6543781942947
 30
0.0
 10
1121.723779016444
 20
-244.3296169094037
 30
0.0
 10
1122.844813087344
 20
-246.2712727248905
 30
0.0
 10
1123.965847158245
 20
-248.2129285403773
 30
0.0
 10
1123.316102149726
 20
-250.6885741560779
 30
0.0
 10
1121.399595531282
 20
-251.8364799717631
 30
0.0
 10
1121.399595531282
 20
-251.8364799717631
 30
0.0
 10
1156.023838686689
 20
-311.8073241407982
 30
0.0
 10
1156.023838686689
 20
-311.8073241407982
 30
0.0
 10
1156.023838686689
 20
-311.8073241407982
 30
0.0
 10
1362.715098400641
 20
-311.8073241407982
 30
0.0
 10
1362.715098400641
 20
-311.8073241407982
 30
0.0
 10
1362.715098400641
 20
-311.8073241407982
 30
0.0
 10
1397.340375084693
 20
-251.8364799717631
 30
0.0
 10
1397.340375084693
 20
-251.8364799717631
 30
0.0
 10
1395.422834937603
 20
-250.6885741560779
 30
0.0
 10
1394.773089929085
 20
-248.2136175594744
 30
0.0
 10
1395.894813019082
 20
-246.2712727248905
 30
0.0
 10
1397.015847089982
 20
-244.3296169094037
 30
0.0
 10
1399.484602514712
 20
-243.6543781942947
 30
0.0
 10
1401.436593616655
 20
-244.7402722912455
 30
0.0
 10
1401.436593616655
 20
-244.7402722912455
 30
0.0
 10
1404.389040447514
 20
-239.6277505911347
 30
0.0
 10
1404.389040447514
 20
-239.6277505911347
 30
0.0
 10
1404.389040447514
 20
-239.6277505911347
 30
0.0
 10
1403.580132027577
 20
-239.1605956433349
 30
0.0
 10
1403.580132027577
 20
-239.1605956433349
 30
0.0
 10
1401.674994224234
 20
-238.0609211644431
 30
0.0
 10
1401.016291967454
 20
-235.6018120070718
 30
0.0
 10
1402.116655465443
 20
-233.6966742037286
 30
0.0
 10
1402.116655465443
 20
-233.6966742037286
 30
0.0
 10
1418.11636791804
 20
-205.9836371012819
 30
0.0
 10
1418.11636791804
 20
-205.9836371012819
 30
0.0
 10
1419.216042396932
 20
-204.0784992979387
 30
0.0
 10
1421.675151554304
 20
-203.4197970411589
 30
0.0
 10
1423.580289357647
 20
-204.5194715200507
 30
0.0
 10
1423.580289357647
 20
-204.5194715200507
 30
0.0
 10
1424.388508758486
 20
-204.9866264678506
 30
0.0
 10
1424.388508758486
 20
-204.9866264678506
 30
0.0
 10
1424.388508758486
 20
-204.9866264678506
 30
0.0
 10
1427.340266570248
 20
-199.8747937868369
 30
0.0
 10
1427.340266570248
 20
-199.8747937868369
 30
0.0
 10
1425.423415442255
 20
-198.7275769902487
 30
0.0
 10
1424.773670433737
 20
-196.2519313745481
 30
0.0
 10
1425.894704504638
 20
-194.3102755590613
 30
0.0
 10
1427.015738575538
 20
-192.3686197435745
 30
0.0
 10
1429.484494000268
 20
-191.6933810284656
 30
0.0
 10
1431.437174121307
 20
-192.7792751254163
 30
0.0
 10
1431.437174121307
 20
-192.7792751254163
 30
0.0
 10
1466.061761786262
 20
-132.8077419372842
 30
0.0
 10
1466.061761786262
 20
-132.8077419372842
 30
0.0
 10
1466.061761786262
 20
-132.8077419372842
 30
0.0
 10
1362.715098400641
 20
46.19252928532687
 30
0.0
 10
1362.715098400641
 20
46.19252928532687
 30
0.0
  0
SPLINE
  5
40
330
1F
100
AcDbEntity
  8
bodenplatte neu
 62
     7
370
    35
100
AcDbSpline
210
0.0
220
0.0
230
1.0
 70
    11
 71
     3
 72
   131
 73
   127
 74
     0
 42
0.0000000001
 43
0.0000000001
 40
0.0
 40
0.0
 40
0.0
 40
0.0
 40
1.0
 40
1.0
 40
1.0
 40
2.0
 40
2.0
 40
2.0
 40
3.0
 40
3.0
 40
3.0
 40
4.0
 40
4.0
 40
4.0
 40
5.0
 40
5.0
 40
5.0
 40
6.0
 40
6.0
 40
6.0
 40
7.0
 40
7.0
 40
7.0
 40
8.0
 40
8.0
 40
8.0
 40
9.0
 40
9.0
 40
9.0
 40
10.0
 40
10.0
 40
10.0
 40
11.0
 40
11.0
 40
11.0
 40
12.0
 40
12.0
 40
12.0
 40
13.0
 40
13.0
 40
13.0
 40
14.0
 40
14.0
 40
14.0
 40
15.0
 40
15.0
 40
15.0
 40
16.0
 40
16.0
 40
16.0
 40
17.0
 40
17.0
 40
17.0
 40
18.0
 40
18.0
 40
18.0
 40
19.0
 40
19.0
 40
19.0
 40
20.0
 40
20.0
 40
20.0
 40
21.0
 40
21.0
 40
21.0
 40
22.0
 40
22.0
 40
22.0
 40
23.0
 40
23.0
 40
23.0
 40
24.0
 40
24.0
 40
24.0
 40
25.0
 40
25.0
 40
25.0
 40
26.0
 40
26.0
 40
26.0
 40
27.0
 40
27.0
 40
27.0
 40
28.0
 40
28.0
 40
28.0
 40
29.0
 40
29.0
 40
29.0
 40
30.0
 40
30.0
 40
30.0
 40
31.0
 40
31.0
 40
31.0
 40
32.0
 40
32.0
 40
32.0
 40
33.0
 40
33.0
 40
33.0
 40
34.0
 40
34.0
 40
34.0
 40
35.0
 40
35.0
 40
35.0
 40
36.0
 40
36.0
 40
36.0
 40
37.0
 40
37.0
 40
37.0
 40
38.0
 40
38.0
 40
38.0
 40
39.0
 40
39.0
 40
39.0
 40
40.0
 40
40.0
 40
40.0
 40
41.0
 40
41.0
 40
41.0
 40
42.0
 40
42.0
 40
42.0
 40
42.0
 10
1362.715098400641
 20
-331.8074814708676
 30
0.0
 10
1362.715098400641
 20
-331.8074814708676
 30
0.0
 10
1293.466612089828
 20
-331.8074814708676
 30
0.0
 10
1293.466612089828
 20
-331.8074814708676
 30
0.0
 10
1293.430783096781
 20
-334.0412813835036
 30
0.0
 10
1291.612461699666
 20
-335.8416882840951
 30
0.0
 10
1289.369704538769
 20
-335.8416882840951
 30
0.0
 10
1287.127636396968
 20
-335.8416882840951
 30
0.0
 10
1285.308625980756
 20
-334.0412813835036
 30
0.0
 10
1285.273486006807
 20
-331.8074814708676
 30
0.0
 10
1285.273486006807
 20
-331.8074814708676
 30
0.0
 10
1279.369281364186
 20
-331.8074814708676
 30
0.0
 10
1279.369281364186
 20
-331.8074814708676
 30
0.0
 10
1279.369281364186
 20
-331.8074814708676
 30
0.0
 10
1279.369281364186
 20
-332.7411023473703
 30
0.0
 10
1279.369281364186
 20
-332.7411023473703
 30
0.0
 10
1279.369281364186
 20
-334.9404513051538
 30
0.0
 10
1277.568874463594
 20
-336.7408582057454
 30
0.0
 10
1275.368836486713
 20
-336.7408582057454
 30
0.0
 10
1275.368836486713
 20
-336.7408582057454
 30
0.0
 10
1243.369411581519
 20
-336.7408582057454
 30
0.0
 10
1243.369411581519
 20
-336.7408582057454
 30
0.0
 10
1241.169373604638
 20
-336.7408582057454
 30
0.0
 10
1239.369311213595
 20
-334.9404513051538
 30
0.0
 10
1239.369311213595
 20
-332.7411023473703
 30
0.0
 10
1239.369311213595
 20
-332.7411023473703
 30
0.0
 10
1239.369311213595
 20
-331.8074814708676
 30
0.0
 10
1239.369311213595
 20
-331.8074814708676
 30
0.0
 10
1239.369311213595
 20
-331.8074814708676
 30
0.0
 10
1233.466829118717
 20
-331.8074814708676
 30
0.0
 10
1233.466829118717
 20
-331.8074814708676
 30
0.0
 10
1233.43100012567
 20
-334.0412813835036
 30
0.0
 10
1231.611989709458
 20
-335.8416882840951
 30
0.0
 10
1229.369921567658
 20
-335.8416882840951
 30
0.0
 10
1227.127853425857
 20
-335.8416882840951
 30
0.0
 10
1225.308843009645
 20
-334.0412813835036
 30
0.0
 10
1225.273014016598
 20
-331.8074814708676
 30
0.0
 10
1225.273014016598
 20
-331.8074814708676
 30
0.0
 10
1156.023838686689
 20
-331.8074814708676
 30
0.0
 10
1156.023838686689
 20
-331.8074814708676
 30
0.0
 10
1156.023838686689
 20
-331.8074814708676
 30
0.0
 10
1052.678553339261
 20
-510.8077526934786
 30
0.0
 10
1052.678553339261
 20
-510.8077526934786
 30
0.0
 10
1052.678553339261
 20
-510.8077526934786
 30
0.0
 10
1087.302796494668
 20
-570.7792858816108
 30
0.0
 10
1087.302796494668
 20
-570.7792858816108
 30
0.0
 10
1089.255132106158
 20
-569.692702765563
 30
0.0
 10
1091.723887530889
 20
-570.3679414806719
 30
0.0
 10
1092.844921601789
 20
-572.3095972961587
 30
0.0
 10
1093.965955672689
 20
-574.2519421307426
 30
0.0
 10
1093.316210664171
 20
-576.7275877464431
 30
0.0
 10
1091.399359536178
 20
-577.8748045430314
 30
0.0
 10
1091.399359536178
 20
-577.8748045430314
 30
0.0
 10
1094.351806367037
 20
-582.9880152622392
 30
0.0
 10
1094.351806367037
 20
-582.9880152622392
 30
0.0
 10
1094.351806367037
 20
-582.9880152622392
 30
0.0
 10
1095.160025767877
 20
-582.5208603144392
 30
0.0
 10
1095.160025767877
 20
-582.5208603144392
 30
0.0
 10
1097.06516357122
 20
-581.4211858355475
 30
0.0
 10
1099.523928219043
 20
-582.0798880923272
 30
0.0
 10
1100.623947207483
 20
-583.9850258956704
 30
0.0
 10
1100.623947207483
 20
-583.9850258956704
 30
0.0
 10
1116.62365966008
 20
-611.6980629981172
 30
0.0
 10
1116.62365966008
 20
-611.6980629981172
 30
0.0
 10
1117.72367864852
 20
-613.6032008014604
 30
0.0
 10
1117.064976391741
 20
-616.0623099588316
 30
0.0
 10
1115.159838588398
 20
-617.1619844377234
 30
0.0
 10
1115.159838588398
 20
-617.1619844377234
 30
0.0
 10
1114.35127467801
 20
-617.6284503664263
 30
0.0
 10
1114.35127467801
 20
-617.6284503664263
 30
0.0
 10
1114.35127467801
 20
-617.6284503664263
 30
0.0
 10
1117.303032489772
 20
-622.7402830474399
 30
0.0
 10
1117.303032489772
 20
-622.7402830474399
 30
0.0
 10
1119.255023591714
 20
-621.6543889504892
 30
0.0
 10
1121.723779016444
 20
-622.3296276655982
 30
0.0
 10
1122.844813087344
 20
-624.271283481085
 30
0.0
 10
1123.965847158245
 20
-626.2129392965718
 30
0.0
 10
1123.316102149726
 20
-628.6885849122723
 30
0.0
 10
1121.399595531282
 20
-629.8364907279575
 30
0.0
 10
1121.399595531282
 20
-629.8364907279575
 30
0.0
 10
1156.023838686689
 20
-689.8073348969926
 30
0.0
 10
1156.023838686689
 20
-689.8073348969926
 30
0.0
 10
1156.023838686689
 20
-689.8073348969926
 30
0.0
 10
1362.715098400641
 20
-689.8073348969926
 30
0.0
 10
1362.715098400641
 20
-689.8073348969926
 30
0.0
 10
1362.715098400641
 20
-689.8073348969926
 30
0.0
 10
1397.340375084693
 20
-629.8364907279575
 30
0.0
 10
1397.340375084693
 20
-629.8364907279575
 30
0.0
 10
1395.422834937603
 20
-628.6885849122723
 30
0.0
 10
1394.773089929085
 20
-626.2136283156689
 30
0.0
 10
1395.894813019082
 20
-624.271283481085
 30
0.0
 10
1397.015847089982
 20
-622.3296276655982
 30
0.0
 10
1399.484602514712
 20
-621.6543889504892
 30
0.0
 10
1401.436593616655
 20
-622.7402830474399
 30
0.0
 10
1401.436593616655
 20
-622.7402830474399
 30
0.0
 10
1404.389040447514
 20
-617.6277613473292
 30
0.0
 10
1404.389040447514
 20
-617.6277613473292
 30
0.0
 10
1404.389040447514
 20
-617.6277613473292
 30
0.0
 10
1403.580132027577
 20
-617.1606063995293
 30
0.0
 10
1403.580132027577
 20
-617.1606063995293
 30
0.0
 10
1401.674994224234
 20
-616.0609319206376
 30
0.0
 10
1401.016291967454
 20
-613.6018227632662
 30
0.0
 10
1402.116655465443
 20
-611.6966849599231
 30
0.0
 10
1402.116655465443
 20
-611.6966849599231
 30
0.0
 10
1418.11636791804
 20
-583.9836478574763
 30
0.0
 10
1418.11636791804
 20
-583.9836478574763
 30
0.0
 10
1419.216042396932
 20
-582.0785100541332
 30
0.0
 10
1421.675151554304
 20
-581.4198077973534
 30
0.0
 10
1423.580289357647
 20
-582.5194822762452
 30
0.0
 10
1423.580289357647
 20
-582.5194822762452
 30
0.0
 10
1424.388508758486
 20
-582.986637224045
 30
0.0
 10
1424.388508758486
 20
-582.986637224045
 30
0.0
 10
1424.388508758486
 20
-582.986637224045
 30
0.0
 10
1427.340266570248
 20
-577.8748045430314
 30
0.0
 10
1427.340266570248
 20
-577.8748045430314
 30
0.0
 10
1425.423415442255
 20
-576.7275877464431
 30
0.0
 10
1424.773670433737
 20
-574.2519421307426
 30
0.0
 10
1425.894704504638
 20
-572.3102863152558
 30
0.0
 10
1427.015738575538
 20
-570.368630499769
 30
0.0
 10
1429.484494000268
 20
-569.69339178466
 30
0.0
 10
1431.437174121307
 20
-570.7792858816108
 30
0.0
 10
1431.437174121307
 20
-570.7792858816108
 30
0.0
 10
1466.061761786262
 20
-510.8077526934786
 30
0.0
 10
1466.061761786262
 20
-510.8077526934786
 30
0.0
 10
1466.061761786262
 20
-510.8077526934786
 30
0.0
 10
1362.715098400641
 20
-331.8074814708676
 30
0.0
 10
1362.715098400641
 20
-331.8074814708676
 30
0.0
  0
INSERT
  5
43
330
1F
100
AcDbEntity
  8
bohrungen
100
AcDbBlockReference
  2
block 2
 10
0.0
 20
0.0
 30
0.0
  0
SPLINE
  5
52
330
1F
100
AcDbEntity
  8
bohrungen
 62
     7
370
    35
100
AcDbSpline
210
0.0
220
0.0
230
1.0
 70
    11
 71
     3
 72
    17
 73
    13
 74
     0
 42
0.0000000001
 43
0.0000000001
 40
0.0
 40
0.0
 40
0.0
 40
0.0
 40
1.0
 40
1.0
 40
1.0
 40
2.0
 40
2.0
 40
2.0
 40
3.0
 40
3.0
 40
3.0
 40
4.0
 40
4.0
 40
4.0
 40
4.0
 10
832.5875947354295
 20
160.6938950878647
 30
0.0
 10
832.5875947354295
 20
159.8102280958981
 30
0.0
 10
831.8713593840461
 20
159.0939927445147
 30
0.0
 10
830.988036901628
 20
159.0939927445147
 30
0.0
 10
830.104025400113
 20
159.0939927445147
 30
0.0
 10
829.3874455391809
 20
159.8102280958981
 30
0.0
 10
829.3874455391809
 20
160.6938950878647
 30
0.0
 10
829.3874455391809
 20
161.5775620798313
 30
0.0
 10
830.104025400113
 20
162.2937974312148
 30
0.0
 10
830.988036901628
 20
162.2937974312148
 30
0.0
 10
831.8713593840461
 20
162.2937974312148
 30
0.0
 10
832.5875947354295
 20
161.5775620798313
 30
0.0
 10
832.5875947354295
 20
160.6938950878647
 30
0.0
  0
SPLINE
  5
53
330
1F
100
AcDbEntity
  8
bohrungen
 62
     7
370
    35
100
AcDbSpline
210
0.0
220
0.0
230
1.0
 70
    11
 71
     3
 72
    17
 73
    13
 74
     0
 42
0.0000000001
 43
0.0000000001
 40
0.0
 40
0.0
 40
0.0
 40
0.0
 40
1.0
 40
1.0
 40
1.0
 40
2.0
 40
2.0
 40
2.0
 40
3.0
 40
3.0
 40
3.0
 40
4.0
 40
4.0
 40
4.0
 40
4.0
 10
1041.587412934048
 20
160.6925170496706
 30
0.0
 10
1041.587412934048
 20
159.8091945672526
 30
0.0
 10
1040.870833073116
 20
159.0926147063206
 30
0.0
 10
1039.987510590698
 20
159.0926147063206
 30
0.0
 10
1039.104188108279
 20
159.0926147063206
 30
0.0
 10
1038.387608247348
 20
159.8091945672526
 30
0.0
 10
1038.387608247348
 20
160.6925170496706
 30
0.0
 10
1038.387608247348
 20
161.5765285511857
 30
0.0
 10
1039.104188108279
 20
162.2931084121177
 30
0.0
 10
1039.987510590698
 20
162.2931084121177
 30
0.0
 10
1040.870833073116
 20
162.2931084121177
 30
0.0
 10
1041.587412934048
 20
161.5765285511857
 30
0.0
 10
1041.587412934048
 20
160.6925170496706
 30
0.0
  0
SPLINE
  5
54
330
1F
100
AcDbEntity
  8
bohrungen
 62
     7
370
    35
100
AcDbSpline
210
0.0
220
0.0
230
1.0
 70
    11
 71
     3
 72
    17
 73
    13
 74
     0
 42
0.0000000001
 43
0.0000000001
 40
0.0
 40
0.0
 40
0.0
 40
0.0
 40
1.0
 40
1.0
 40
1.0
 40
2.0
 40
2.0
 40
2.0
 40
3.0
 40
3.0
 40
3.0
 40
4.0
 40
4.0
 40
4.0
 40
4.0
 10
937.0852645226731
 20
-48.30643987507617
 30
0.0
 10
937.0852645226731
 20
-49.18976235749423
 30
0.0
 10
936.3693736808383
 20
-49.9063422184262
 30
0.0
 10
935.4860511984202
 20
-49.9063422184262
 30
0.0
 10
934.6020396969051
 20
-49.9063422184262
 30
0.0
 10
933.8854598359732
 20
-49.18976235749423
 30
0.0
 10
933.8854598359732
 20
-48.30643987507617
 30
0.0
 10
933.8854598359732
 20
-47.42311739265811
 30
0.0
 10
934.6020396969051
 20
-46.70653753172615
 30
0.0
 10
935.4860511984202
 20
-46.70653753172615
 30
0.0
 10
936.3693736808383
 20
-46.70653753172615
 30
0.0
 10
937.0852645226731
 20
-47.42311739265811
 30
0.0
 10
937.0852645226731
 20
-48.30643987507617
 30
0.0
  0
SPLINE
  5
55
330
1F
100
AcDbEntity
  8
bohrungen
 62
     7
370
    35
100
AcDbSpline
210
0.0
220
0.0
230
1.0
 70
    11
 71
     3
 72
    17
 73
    13
 74
     0
 42
0.0000000001
 43
0.0000000001
 40
0.0
 40
0.0
 40
0.0
 40
0.0
 40
1.0
 40
1.0
 40
1.0
 40
2.0
 40
2.0
 40
2.0
 40
3.0
 40
3.0
 40
3.0
 40
4.0
 40
4.0
 40
4.0
 40
4.0
 10
832.5879392449781
 20
-48.30643987507617
 30
0.0
 10
832.5879392449781
 20
-49.18976235749423
 30
0.0
 10
831.8713593840461
 20
-49.9063422184262
 30
0.0
 10
830.988036901628
 20
-49.9063422184262
 30
0.0
 10
830.104025400113
 20
-49.9063422184262
 30
0.0
 10
829.3874455391809
 20
-49.18976235749423
 30
0.0
 10
829.3874455391809
 20
-48.30643987507617
 30
0.0
 10
829.3874455391809
 20
-47.42311739265811
 30
0.0
 10
830.104025400113
 20
-46.70653753172615
 30
0.0
 10
830.988036901628
 20
-46.70653753172615
 30
0.0
 10
831.8713593840461
 20
-46.70653753172615
 30
0.0
 10
832.5879392449781
 20
-47.42311739265811
 30
0.0
 10
832.5879392449781
 20
-48.30643987507617
 30
0.0
  0
SPLINE
  5
56
330
1F
100
AcDbEntity
  8
bohrungen
 62
     7
370
    35
100
AcDbSpline
210
0.0
220
0.0
230
1.0
 70
    11
 71
     3
 72
    29
 73
    25
 74
     0
 42
0.0000000001
 43
0.0000000001
 40
0.0
 40
0.0
 40
0.0
 40
0.0
 40
1.0
 40
1.0
 40
1.0
 40
2.0
 40
2.0
 40
2.0
 40
3.0
 40
3.0
 40
3.0
 40
4.0
 40
4.0
 40
4.0
 40
5.0
 40
5.0
 40
5.0
 40
6.0
 40
6.0
 40
6.0
 40
7.0
 40
7.0
 40
7.0
 40
8.0
 40
8.0
 40
8.0
 40
8.0
 10
947.9855466380037
 20
-39.3064724294095
 30
0.0
 10
947.9855466380037
 20
-40.68175454712123
 30
0.0
 10
946.8603784525211
 20
-41.80623371350678
 30
0.0
 10
945.4850963348093
 20
-41.80623371350678
 30
0.0
 10
945.4850963348093
 20
-41.80623371350678
 30
0.0
 10
925.485628023837
 20
-41.80623371350678
 30
0.0
 10
925.485628023837
 20
-41.80623371350678
 30
0.0
 10
924.1103459061252
 20
-41.80623371350678
 30
0.0
 10
922.9851777206426
 20
-40.68175454712123
 30
0.0
 10
922.9851777206426
 20
-39.3064724294095
 30
0.0
 10
922.9851777206426
 20
-39.3064724294095
 30
0.0
 10
922.9851777206426
 20
-39.3064724294095
 30
0.0
 10
922.9851777206426
 20
-39.3064724294095
 30
0.0
 10
922.9851777206426
 20
-37.93119031169776
 30
0.0
 10
924.1103459061252
 20
-36.80602212621516
 30
0.0
 10
925.485628023837
 20
-36.80602212621516
 30
0.0
 10
925.485628023837
 20
-36.80602212621516
 30
0.0
 10
945.4850963348093
 20
-36.80602212621516
 30
0.0
 10
945.4850963348093
 20
-36.80602212621516
 30
0.0
 10
946.8603784525211
 20
-36.80602212621516
 30
0.0
 10
947.9855466380037
 20
-37.93119031169776
 30
0.0
 10
947.9855466380037
 20
-39.3064724294095
 30
0.0
 10
947.9855466380037
 20
-39.3064724294095
 30
0.0
 10
947.9855466380037
 20
-39.3064724294095
 30
0.0
 10
947.9855466380037
 20
-39.3064724294095
 30
0.0
  0
SPLINE
  5
57
330
1F
100
AcDbEntity
  8
bohrungen
 62
     7
370
    35
100
AcDbSpline
210
0.0
220
0.0
230
1.0
 70
    11
 71
     3
 72
    17
 73
    13
 74
     0
 42
0.0000000001
 43
0.0000000001
 40
0.0
 40
0.0
 40
0.0
 40
0.0
 40
1.0
 40
1.0
 40
1.0
 40
2.0
 40
2.0
 40
2.0
 40
3.0
 40
3.0
 40
3.0
 40
4.0
 40
4.0
 40
4.0
 40
4.0
 10
1041.59154704863
 20
-48.30643987507617
 30
0.0
 10
1041.59154704863
 20
-49.18976235749423
 30
0.0
 10
1040.874967187698
 20
-49.9063422184262
 30
0.0
 10
1039.99164470528
 20
-49.9063422184262
 30
0.0
 10
1039.108322222862
 20
-49.9063422184262
 30
0.0
 10
1038.39174236193
 20
-49.18976235749423
 30
0.0
 10
1038.39174236193
 20
-48.30643987507617
 30
0.0
 10
1038.39174236193
 20
-47.42311739265811
 30
0.0
 10
1039.108322222862
 20
-46.70653753172615
 30
0.0
 10
1039.99164470528
 20
-46.70653753172615
 30
0.0
 10
1040.874967187698
 20
-46.70653753172615
 30
0.0
 10
1041.59154704863
 20
-47.42311739265811
 30
0.0
 10
1041.59154704863
 20
-48.30643987507617
 30
0.0
  0
INSERT
  5
59
330
1F
100
AcDbEntity
  8
bohrungen
100
AcDbBlockReference
  2
block 3
 10
0.0
 20
0.0
 30
0.0
  0
INSERT
  5
63
330
1F
100
AcDbEntity
  8
bohrungen
100
AcDbBlockReference
  2
block 4
 10
0.0
 20
0.0
 30
0.0
  0
SPLINE
  5
72
330
1F
100
AcDbEntity
  8
bohrungen
 62
     7
370
    35
100
AcDbSpline
210
0.0
220
0.0
230
1.0
 70
    11
 71
     3
 72
    17
 73
    13
 74
     0
 42
0.0000000001
 43
0.0000000001
 40
0.0
 40
0.0
 40
0.0
 40
0.0
 40
1.0
 40
1.0
 40
1.0
 40
2.0
 40
2.0
 40
2.0
 40
3.0
 40
3.0
 40
3.0
 40
4.0
 40
4.0
 40
4.0
 40
4.0
 10
1156.469978552028
 20
-28.30628254500676
 30
0.0
 10
1156.469978552028
 20
-29.18960502742482
 30
0.0
 10
1155.753743200645
 20
-29.90618488835679
 30
0.0
 10
1154.870420718227
 20
-29.90618488835679
 30
0.0
 10
1153.986409216712
 20
-29.90618488835679
 30
0.0
 10
1153.26982935578
 20
-29.18960502742482
 30
0.0
 10
1153.26982935578
 20
-28.30628254500676
 30
0.0
 10
1153.26982935578
 20
-27.42227104349166
 30
0.0
 10
1153.986409216712
 20
-26.70638020165674
 30
0.0
 10
1154.870420718227
 20
-26.70638020165674
 30
0.0
 10
1155.753743200645
 20
-26.70638020165674
 30
0.0
 10
1156.469978552028
 20
-27.42227104349166
 30
0.0
 10
1156.469978552028
 20
-28.30628254500676
 30
0.0
  0
SPLINE
  5
73
330
1F
100
AcDbEntity
  8
bohrungen
 62
     7
370
    35
100
AcDbSpline
210
0.0
220
0.0
230
1.0
 70
    11
 71
     3
 72
    17
 73
    13
 74
     0
 42
0.0000000001
 43
0.0000000001
 40
0.0
 40
0.0
 40
0.0
 40
0.0
 40
1.0
 40
1.0
 40
1.0
 40
2.0
 40
2.0
 40
2.0
 40
3.0
 40
3.0
 40
3.0
 40
4.0
 40
4.0
 40
4.0
 40
4.0
 10
1365.469796750647
 20
-28.30766058320086
 30
0.0
 10
1365.469796750647
 20
-29.19098306561892
 30
0.0
 10
1364.753216889715
 20
-29.90756292655089
 30
0.0
 10
1363.869894407296
 20
-29.90756292655089
 30
0.0
 10
1362.986571924878
 20
-29.90756292655089
 30
0.0
 10
1362.269992063946
 20
-29.19098306561892
 30
0.0
 10
1362.269992063946
 20
-28.30766058320086
 30
0.0
 10
1362.269992063946
 20
-27.42364908168576
 30
0.0
 10
1362.986571924878
 20
-26.70706922075379
 30
0.0
 10
1363.869894407296
 20
-26.70706922075379
 30
0.0
 10
1364.753216889715
 20
-26.70706922075379
 30
0.0
 10
1365.469796750647
 20
-27.42364908168576
 30
0.0
 10
1365.469796750647
 20
-28.30766058320086
 30
0.0
  0
SPLINE
  5
74
330
1F
100
AcDbEntity
  8
bohrungen
 62
     7
370
    35
100
AcDbSpline
210
0.0
220
0.0
230
1.0
 70
    11
 71
     3
 72
    17
 73
    13
 74
     0
 42
0.0000000001
 43
0.0000000001
 40
0.0
 40
0.0
 40
0.0
 40
0.0
 40
1.0
 40
1.0
 40
1.0
 40
2.0
 40
2.0
 40
2.0
 40
3.0
 40
3.0
 40
3.0
 40
4.0
 40
4.0
 40
4.0
 40
4.0
 10
1260.967648339272
 20
-237.3064452531734
 30
0.0
 10
1260.967648339272
 20
-238.1897677355915
 30
0.0
 10
1260.251757497437
 20
-238.9063475965234
 30
0.0
 10
1259.368435015019
 20
-238.9063475965234
 30
0.0
 10
1258.484423513504
 20
-238.9063475965234
 30
0.0
 10
1257.767843652572
 20
-238.1897677355915
 30
0.0
 10
1257.767843652572
 20
-237.3064452531734
 30
0.0
 10
1257.767843652572
 20
-236.4231227707553
 30
0.0
 10
1258.484423513504
 20
-235.7065429098234
 30
0.0
 10
1259.368435015019
 20
-235.7065429098234
 30
0.0
 10
1260.251757497437
 20
-235.7065429098234
 30
0.0
 10
1260.967648339272
 20
-236.4231227707553
 30
0.0
 10
1260.967648339272
 20
-237.3064452531734
 30
0.0
  0
SPLINE
  5
75
330
1F
100
AcDbEntity
  8
bohrungen
 62
     7
370
    35
100
AcDbSpline
210
0.0
220
0.0
230
1.0
 70
    11
 71
     3
 72
    17
 73
    13
 74
     0
 42
0.0000000001
 43
0.0000000001
 40
0.0
 40
0.0
 40
0.0
 40
0.0
 40
1.0
 40
1.0
 40
1.0
 40
2.0
 40
2.0
 40
2.0
 40
3.0
 40
3.0
 40
3.0
 40
4.0
 40
4.0
 40
4.0
 40
4.0
 10
1156.470323061577
 20
-237.3064452531734
 30
0.0
 10
1156.470323061577
 20
-238.1897677355915
 30
0.0
 10
1155.753743200645
 20
-238.9063475965234
 30
0.0
 10
1154.870420718227
 20
-238.9063475965234
 30
0.0
 10
1153.986409216712
 20
-238.9063475965234
 30
0.0
 10
1153.26982935578
 20
-238.1897677355915
 30
0.0
 10
1153.26982935578
 20
-237.3064452531734
 30
0.0
 10
1153.26982935578
 20
-236.4231227707553
 30
0.0
 10
1153.986409216712
 20
-235.7065429098234
 30
0.0
 10
1154.870420718227
 20
-235.7065429098234
 30
0.0
 10
1155.753743200645
 20
-235.7065429098234
 30
0.0
 10
1156.470323061577
 20
-236.4231227707553
 30
0.0
 10
1156.470323061577
 20
-237.3064452531734
 30
0.0
  0
SPLINE
  5
76
330
1F
100
AcDbEntity
  8
bohrungen
 62
     7
370
    35
100
AcDbSpline
210
0.0
220
0.0
230
1.0
 70
    11
 71
     3
 72
    29
 73
    25
 74
     0
 42
0.0000000001
 43
0.0000000001
 40
0.0
 40
0.0
 40
0.0
 40
0.0
 40
1.0
 40
1.0
 40
1.0
 40
2.0
 40
2.0
 40
2.0
 40
3.0
 40
3.0
 40
3.0
 40
4.0
 40
4.0
 40
4.0
 40
5.0
 40
5.0
 40
5.0
 40
6.0
 40
6.0
 40
6.0
 40
7.0
 40
7.0
 40
7.0
 40
8.0
 40
8.0
 40
8.0
 40
8.0
 10
1271.867930454603
 20
-228.3064778075067
 30
0.0
 10
1271.867930454603
 20
-229.6817599252185
 30
0.0
 10
1270.74276226912
 20
-230.806239091604
 30
0.0
 10
1269.367480151408
 20
-230.806239091604
 30
0.0
 10
1269.367480151408
 20
-230.806239091604
 30
0.0
 10
1249.368011840436
 20
-230.806239091604
 30
0.0
 10
1249.368011840436
 20
-230.806239091604
 30
0.0
 10
1247.992729722724
 20
-230.806239091604
 30
0.0
 10
1246.867561537241
 20
-229.6817599252185
 30
0.0
 10
1246.867561537241
 20
-228.3064778075067
 30
0.0
 10
1246.867561537241
 20
-228.3064778075067
 30
0.0
 10
1246.867561537241
 20
-228.3064778075067
 30
0.0
 10
1246.867561537241
 20
-228.3064778075067
 30
0.0
 10
1246.867561537241
 20
-226.931195689795
 30
0.0
 10
1247.992729722724
 20
-225.8060275043124
 30
0.0
 10
1249.368011840436
 20
-225.8060275043124
 30
0.0
 10
1249.368011840436
 20
-225.8060275043124
 30
0.0
 10
1269.367480151408
 20
-225.8060275043124
 30
0.0
 10
1269.367480151408
 20
-225.8060275043124
 30
0.0
 10
1270.74276226912
 20
-225.8060275043124
 30
0.0
 10
1271.867930454603
 20
-226.931195689795
 30
0.0
 10
1271.867930454603
 20
-228.3064778075067
 30
0.0
 10
1271.867930454603
 20
-228.3064778075067
 30
0.0
 10
1271.867930454603
 20
-228.3064778075067
 30
0.0
 10
1271.867930454603
 20
-228.3064778075067
 30
0.0
  0
SPLINE
  5
77
330
1F
100
AcDbEntity
  8
bohrungen
 62
     7
370
    35
100
AcDbSpline
210
0.0
220
0.0
230
1.0
 70
    11
 71
     3
 72
    17
 73
    13
 74
     0
 42
0.0000000001
 43
0.0000000001
 40
0.0
 40
0.0
 40
0.0
 40
0.0
 40
1.0
 40
1.0
 40
1.0
 40
2.0
 40
2.0
 40
2.0
 40
3.0
 40
3.0
 40
3.0
 40
4.0
 40
4.0
 40
4.0
 40
4.0
 10
1365.473930865229
 20
-237.3064452531734
 30
0.0
 10
1365.473930865229
 20
-238.1897677355915
 30
0.0
 10
1364.757351004297
 20
-238.9063475965234
 30
0.0
 10
1363.874028521879
 20
-238.9063475965234
 30
0.0
 10
1362.990706039461
 20
-238.9063475965234
 30
0.0
 10
1362.274126178529
 20
-238.1897677355915
 30
0.0
 10
1362.274126178529
 20
-237.3064452531734
 30
0.0
 10
1362.274126178529
 20
-236.4231227707553
 30
0.0
 10
1362.990706039461
 20
-235.7065429098234
 30
0.0
 10
1363.874028521879
 20
-235.7065429098234
 30
0.0
 10
1364.757351004297
 20
-235.7065429098234
 30
0.0
 10
1365.473930865229
 20
-236.4231227707553
 30
0.0
 10
1365.473930865229
 20
-237.3064452531734
 30
0.0
  0
INSERT
  5
79
330
1F
100
AcDbEntity
  8
bohrungen
100
AcDbBlockReference
  2
block 5
 10
0.0
 20
0.0
 30
0.0
  0
ENDSEC
  0
SECTION
  2
OBJECTS
  0
DICTIONARY
  5
C
330
0
100
AcDbDictionary
281
     1
  3
ACAD_GROUP
350
D
  3
ACAD_LAYOUT
350
1A
  3
ACAD_MLINESTYLE
350
17
  3
ACAD_PLOTSETTINGS
350
19
  3
ACAD_PLOTSTYLENAME
350
E
  3
ACAD_TABLESTYLE
350
84
  3
ACAD_VISUALSTYLE
350
2A
  0
DICTIONARY
  5
D
102
{ACAD_REACTORS
330
C
102
}
330
C
100
AcDbDictionary
281
     1
  0
DICTIONARY
  5
1A
102
{ACAD_REACTORS
330
C
102
}
330
C
100
AcDbDictionary
281
     1
  3
Layout1
350
1E
  3
Layout2
350
26
  3
Model
350
22
  0
DICTIONARY
  5
17
102
{ACAD_REACTORS
330
C
102
}
330
C
100
AcDbDictionary
281
     1
  3
Standard
350
18
  0
DICTIONARY
  5
19
102
{ACAD_REACTORS
330
C
102
}
330
C
100
AcDbDictionary
281
     1
  0
ACDBDICTIONARYWDFLT
  5
E
102
{ACAD_REACTORS
330
C
102
}
330
C
100
AcDbDictionary
281
     1
  3
Normal
350
F
100
AcDbDictionaryWithDefault
340
F
  0
DICTIONARY
  5
84
102
{ACAD_REACTORS
330
C
102
}
330
C
100
AcDbDictionary
281
     1
  0
DICTIONARY
  5
2A
102
{ACAD_REACTORS
330
C
102
}
330
C
100
AcDbDictionary
281
     1
  3
2dWireframe
350
2F
  3
3D Hidden
350
31
  3
3dWireframe
350
30
  3
Basic
350
32
  3
Brighten
350
36
  3
ColorChange
350
3A
  3
Conceptual
350
34
  3
Dim
350
35
  3
Facepattern
350
39
  3
Flat
350
2B
  3
FlatWithEdges
350
2C
  3
Gouraud
350
2D
  3
GouraudWithEdges
350
2E
  3
Linepattern
350
38
  3
Realistic
350
33
  3
Thicken
350
37
  0
LAYOUT
  5
1E
102
{ACAD_REACTORS
330
1A
102
}
330
1A
100
AcDbPlotSettings
  1

  2
none_device
  4

  6

 40
0.0
 41
0.0
 42
0.0
 43
0.0
 44
0.0
 45
0.0
 46
0.0
 47
0.0
 48
0.0
 49
0.0
140
0.0
141
0.0
142
1.0
143
1.0
 70
   688
 72
     0
 73
     0
 74
     5
  7

 75
    16
 76
     0
 77
     2
 78
   300
147
1.0
148
0.0
149
0.0
100
AcDbLayout
  1
Layout1
 70
     1
 71
     1
 10
0.0
 20
0.0
 11
12.0
 21
9.0
 12
0.0
 22
0.0
 32
0.0
 14
1.000000000000000E+20
 24
1.000000000000000E+20
 34
1.000000000000000E+20
 15
-1.000000000000000E+20
 25
-1.000000000000000E+20
 35
-1.000000000000000E+20
146
0.0
 13
0.0
 23
0.0
 33
0.0
 16
1.0
 26
0.0
 36
0.0
 17
0.0
 27
1.0
 37
0.0
 76
     0
330
1B
  0
LAYOUT
  5
26
102
{ACAD_REACTORS
330
1A
102
}
330
1A
100
AcDbPlotSettings
  1

  2
none_device
  4

  6

 40
0.0
 41
0.0
 42
0.0
 43
0.0
 44
0.0
 45
0.0
 46
0.0
 47
0.0
 48
0.0
 49
0.0
140
0.0
141
0.0
142
1.0
143
1.0
 70
   688
 72
     0
 73
     0
 74
     5
  7

 75
    16
 76
     0
 77
     2
 78
   300
147
1.0
148
0.0
149
0.0
100
AcDbLayout
  1
Layout2
 70
     1
 71
     2
 10
0.0
 20
0.0
 11
0.0
 21
0.0
 12
0.0
 22
0.0
 32
0.0
 14
0.0
 24
0.0
 34
0.0
 15
0.0
 25
0.0
 35
0.0
146
0.0
 13
0.0
 23
0.0
 33
0.0
 16
1.0
 26
0.0
 36
0.0
 17
0.0
 27
1.0
 37
0.0
 76
     0
330
23
  0
LAYOUT
  5
22
102
{ACAD_REACTORS
330
1A
102
}
330
1A
100
AcDbPlotSettings
  1

  2
none_device
  4

  6

 40
0.0
 41
0.0
 42
0.0
 43
0.0
 44
0.0
 45
0.0
 46
0.0
 47
0.0
 48
0.0
 49
0.0
140
0.0
141
0.0
142
1.0
143
1.0
 70
  1712
 72
     0
 73
     0
 74
     0
  7

 75
     0
 76
     0
 77
     2
 78
   300
147
1.0
148
0.0
149
0.0
100
AcDbLayout
  1
Model
 70
     1
 71
     0
 10
0.0
 20
0.0
 11
12.0
 21
9.0
 12
0.0
 22
0.0
 32
0.0
 14
1.000000000000000E+20
 24
1.000000000000000E+20
 34
1.000000000000000E+20
 15
-1.000000000000000E+20
 25
-1.000000000000000E+20
 35
-1.000000000000000E+20
146
0.0
 13
0.0
 23
0.0
 33
0.0
 16
1.0
 26
0.0
 36
0.0
 17
0.0
 27
1.0
 37
0.0
 76
     0
330
1F
331
29
  0
MLINESTYLE
  5
18
102
{ACAD_REACTORS
330
17
102
}
330
17
100
AcDbMlineStyle
  2
Standard
 70
     0
  3

 62
   256
 51
90.0
 52
90.0
 71
     2
 49
0.5
 62
   256
  6
BYLAYER
 49
-0.5
 62
   256
  6
BYLAYER
  0
ACDBPLACEHOLDER
  5
F
102
{ACAD_REACTORS
330
E
102
}
330
E
  0
VISUALSTYLE
  5
2F
102
{ACAD_REACTORS
330
2A
102
}
330
2A
100
AcDbVisualStyle
  2
2dWireframe
 70
     4
 71
     0
 72
     2
 73
     0
 90
        0
 40
-0.6
 41
-30.0
 62
     5
 63
     7
421
 16777215
 74
     1
 91
        4
 64
     7
 65
   257
 75
     1
175
     1
 42
1.0
 92
        0
 66
   257
 43
1.0
 76
     1
 77
     6
 78
     2
 67
     7
 79
     5
170
     0
171
     0
290
     0
174
     0
 93
        1
 44
0.0
173
     0
291
     0
 45
0.0
1001
ACAD
1000
AcDbSavedByObjectVersion
1070
     0
  0
VISUALSTYLE
  5
31
102
{ACAD_REACTORS
330
2A
102
}
330
2A
100
AcDbVisualStyle
  2
3D Hidden
 70
     6
 71
     1
 72
     2
 73
     2
 90
        0
 40
-0.6
 41
-30.0
 62
     5
 63
     7
421
 16777215
 74
     2
 91
        2
 64
     7
 65
   257
 75
     2
175
     1
 42
40.0
 92
        0
 66
   257
 43
1.0
 76
     1
 77
     6
 78
     2
 67
     7
 79
     3
170
     0
171
     0
290
     0
174
     0
 93
        1
 44
0.0
173
     0
291
     0
 45
0.0
1001
ACAD
1000
AcDbSavedByObjectVersion
1070
     0
  0
VISUALSTYLE
  5
30
102
{ACAD_REACTORS
330
2A
102
}
330
2A
100
AcDbVisualStyle
  2
3dWireframe
 70
     5
 71
     0
 72
     2
 73
     0
 90
        0
 40
-0.6
 41
-30.0
 62
     5
 63
     7
421
 16777215
 74
     1
 91
        4
 64
     7
 65
   257
 75
     1
175
     1
 42
1.0
 92
        0
 66
   257
 43
1.0
 76
     1
 77
     6
 78
     2
 67
     7
 79
     5
170
     0
171
     0
290
     0
174
     0
 93
        1
 44
0.0
173
     0
291
     0
 45
0.0
1001
ACAD
1000
AcDbSavedByObjectVersion
1070
     0
  0
VISUALSTYLE
  5
32
102
{ACAD_REACTORS
330
2A
102
}
330
2A
100
AcDbVisualStyle
  2
Basic
 70
     7
 71
     1
 72
     0
 73
     1
 90
        0
 40
-0.6
 41
-30.0
 62
     5
 63
     7
421
 16777215
 74
     0
 91
        4
 64
     7
 65
   257
 75
     1
175
     1
 42
1.0
 92
        8
 66
     7
 43
1.0
 76
     1
 77
     6
 78
     2
 67
     7
 79
     5
170
     0
171
     0
290
     0
174
     0
 93
        1
 44
0.0
173
     0
291
     1
 45
0.0
1001
ACAD
1000
AcDbSavedByObjectVersion
1070
     0
  0
VISUALSTYLE
  5
36
102
{ACAD_REACTORS
330
2A
102
}
330
2A
100
AcDbVisualStyle
  2
Brighten
 70
    12
 71
     2
 72
     2
 73
     0
 90
        0
 40
-0.6
 41
-30.0
 62
     5
 63
     7
421
 16777215
 74
     1
 91
        4
 64
     7
 65
   257
 75
     1
175
     1
 42
1.0
 92
        8
 66
     7
 43
1.0
 76
     1
 77
     6
 78
     2
 67
     7
 79
     5
170
     0
171
     0
290
     0
174
     0
 93
        1
 44
50.0
173
     0
291
     1
 45
0.0
1001
ACAD
1000
AcDbSavedByObjectVersion
1070
     0
  0
VISUALSTYLE
  5
3A
102
{ACAD_REACTORS
330
2A
102
}
330
2A
100
AcDbVisualStyle
  2
ColorChange
 70
    16
 71
     2
 72
     2
 73
     3
 90
        0
 40
-0.6
 41
-30.0
 62
     5
 63
     8
421
  8421504
 74
     1
 91
        4
 64
     7
 65
   257
 75
     1
175
     1
 42
1.0
 92
        8
 66
     8
424
  8421504
 43
1.0
 76
     1
 77
     6
 78
     2
 67
     7
 79
     5
170
     0
171
     0
290
     0
174
     0
 93
        1
 44
0.0
173
     0
291
     1
 45
0.0
1001
ACAD
1000
AcDbSavedByObjectVersion
1070
     0
  0
VISUALSTYLE
  5
34
102
{ACAD_REACTORS
330
2A
102
}
330
2A
100
AcDbVisualStyle
  2
Conceptual
 70
     9
 71
     3
 72
     2
 73
     0
 90
        0
 40
-0.6
 41
-30.0
 62
     5
 63
     7
421
 16777215
 74
     2
 91
        2
 64
     7
 65
   257
 75
     1
175
     1
 42
40.0
 92
        8
 66
     7
 43
1.0
 76
     1
 77
     6
 78
     2
 67
     7
 79
     3
170
     0
171
     0
290
     0
174
     0
 93
        1
 44
0.0
173
     0
291
     0
 45
0.0
1001
ACAD
1000
AcDbSavedByObjectVersion
1070
     0
  0
VISUALSTYLE
  5
35
102
{ACAD_REACTORS
330
2A
102
}
330
2A
100
AcDbVisualStyle
  2
Dim
 70
    11
 71
     2
 72
     2
 73
     0
 90
        0
 40
-0.6
 41
-30.0
 62
     5
 63
     7
421
 16777215
 74
     1
 91
        4
 64
     7
 65
   257
 75
     1
175
     1
 42
1.0
 92
        8
 66
     7
 43
1.0
 76
     1
 77
     6
 78
     2
 67
     7
 79
     5
170
     0
171
     0
290
     0
174
     0
 93
        1
 44
-50.0
173
     0
291
     1
 45
0.0
1001
ACAD
1000
AcDbSavedByObjectVersion
1070
     0
  0
VISUALSTYLE
  5
39
102
{ACAD_REACTORS
330
2A
102
}
330
2A
100
AcDbVisualStyle
  2
Facepattern
 70
    15
 71
     2
 72
     2
 73
     0
 90
        0
 40
-0.6
 41
-30.0
 62
     5
 63
     7
421
 16777215
 74
     1
 91
        4
 64
     7
 65
   257
 75
     1
175
     1
 42
1.0
 92
        8
 66
     7
 43
1.0
 76
     1
 77
     6
 78
     2
 67
     7
 79
     5
170
     0
171
     0
290
     0
174
     0
 93
        1
 44
0.0
173
     0
291
     1
 45
0.0
1001
ACAD
1000
AcDbSavedByObjectVersion
1070
     0
  0
VISUALSTYLE
  5
2B
102
{ACAD_REACTORS
330
2A
102
}
330
2A
100
AcDbVisualStyle
  2
Flat
 70
     0
 71
     2
 72
     1
 73
     1
 90
        2
 40
-0.6
 41
30.0
 62
     5
 63
     7
421
 16777215
 74
     0
 91
        4
 64
     7
 65
   257
 75
     1
175
     1
 42
1.0
 92
        8
 66
     7
 43
1.0
 76
     1
 77
     6
 78
     2
 67
     7
 79
     5
170
     0
171
     0
290
     0
174
     0
 93
       13
 44
0.0
173
     0
291
     1
 45
0.0
1001
ACAD
1000
AcDbSavedByObjectVersion
1070
     0
  0
VISUALSTYLE
  5
2C
102
{ACAD_REACTORS
330
2A
102
}
330
2A
100
AcDbVisualStyle
  2
FlatWithEdges
 70
     1
 71
     2
 72
     1
 73
     1
 90
        2
 40
-0.6
 41
30.0
 62
     5
 63
     7
421
 16777215
 74
     1
 91
        4
 64
     7
 65
   257
 75
     1
175
     1
 42
1.0
 92
        0
 66
   257
 43
1.0
 76
     1
 77
     6
 78
     2
 67
     7
 79
     5
170
     0
171
     0
290
     0
174
     0
 93
       13
 44
0.0
173
     0
291
     1
 45
0.0
1001
ACAD
1000
AcDbSavedByObjectVersion
1070
     0
  0
VISUALSTYLE
  5
2D
102
{ACAD_REACTORS
330
2A
102
}
330
2A
100
AcDbVisualStyle
  2
Gouraud
 70
     2
 71
     2
 72
     2
 73
     1
 90
        2
 40
-0.6
 41
30.0
 62
     5
 63
     7
421
 16777215
 74
     0
 91
        4
 64
     7
 65
   257
 75
     1
175
     1
 42
1.0
 92
        0
 66
     7
 43
1.0
 76
     1
 77
     6
 78
     2
 67
     7
 79
     5
170
     0
171
     0
290
     0
174
     0
 93
       13
 44
0.0
173
     0
291
     1
 45
0.0
1001
ACAD
1000
AcDbSavedByObjectVersion
1070
     0
  0
VISUALSTYLE
  5
2E
102
{ACAD_REACTORS
330
2A
102
}
330
2A
100
AcDbVisualStyle
  2
GouraudWithEdges
 70
     3
 71
     2
 72
     2
 73
     1
 90
        2
 40
-0.6
 41
30.0
 62
     5
 63
     7
421
 16777215
 74
     1
 91
        4
 64
     7
 65
   257
 75
     1
175
     1
 42
1.0
 92
        0
 66
   257
 43
1.0
 76
     1
 77
     6
 78
     2
 67
     7
 79
     5
170
     0
171
     0
290
     0
174
     0
 93
       13
 44
0.0
173
     0
291
     1
 45
0.0
1001
ACAD
1000
AcDbSavedByObjectVersion
1070
     0
  0
VISUALSTYLE
  5
38
102
{ACAD_REACTORS
330
2A
102
}
330
2A
100
AcDbVisualStyle
  2
Linepattern
 70
    14
 71
     2
 72
     2
 73
     0
 90
        0
 40
-0.6
 41
-30.0
 62
     5
 63
     7
421
 16777215
 74
     1
 91
        4
 64
     7
 65
   257
 75
     7
175
     7
 42
1.0
 92
        8
 66
     7
 43
1.0
 76
     1
 77
     6
 78
     2
 67
     7
 79
     5
170
     0
171
     0
290
     0
174
     0
 93
        1
 44
0.0
173
     0
291
     1
 45
0.0
1001
ACAD
1000
AcDbSavedByObjectVersion
1070
     0
  0
VISUALSTYLE
  5
33
102
{ACAD_REACTORS
330
2A
102
}
330
2A
100
AcDbVisualStyle
  2
Realistic
 70
     8
 71
     2
 72
     2
 73
     0
 90
        0
 40
-0.6
 41
-30.0
 62
     5
 63
     7
421
 16777215
 74
     1
 91
        0
 64
     7
 65
   257
 75
     1
175
     1
 42
1.0
 92
        8
 66
     8
424
  7895160
 43
1.0
 76
     1
 77
     6
 78
     2
 67
     7
 79
     5
170
     0
171
     0
290
     0
174
     0
 93
       13
 44
0.0
173
     0
291
     0
 45
0.0
1001
ACAD
1000
AcDbSavedByObjectVersion
1070
     0
  0
VISUALSTYLE
  5
37
102
{ACAD_REACTORS
330
2A
102
}
330
2A
100
AcDbVisualStyle
  2
Thicken
 70
    13
 71
     2
 72
     2
 73
     0
 90
        0
 40
-0.6
 41
-30.0
 62
     5
 63
     7
421
 16777215
 74
     1
 91
        4
 64
     7
 65
   257
 75
     1
175
     1
 42
1.0
 92
       12
 66
     7
 43
1.0
 76
     1
 77
     6
 78
     2
 67
     7
 79
     5
170
     0
171
     0
290
     0
174
     0
 93
        1
 44
0.0
173
     0
291
     1
 45
0.0
1001
ACAD
1000
AcDbSavedByObjectVersion
1070
     0
  0
ENDSEC
  0
EOF
